<svg width="31" height="19" viewBox="0 0 31 19" fill="none" xmlns="http://www.w3.org/2000/svg">
<path d="M30.1743 0.746582H0.195312V18.2485H30.1743V0.746582Z" fill="#000066"/>
<path d="M0.101563 2.00098V3.67725L26.8117 16.9941H30.1738V15.3179L3.46364 2.00103H0.101562L0.101563 2.00098ZM30.1738 2.00098V3.6772L3.46364 16.994H0.101562V15.3178L26.8117 2.00098H30.1738Z" fill="white"/>
<path d="M12.6317 2.00098V16.994H17.6437V2.00098H12.6317ZM0.101562 6.99866V11.9963H30.1738V6.99866H0.101562Z" fill="white"/>
<path d="M0.101562 7.9982V10.9968H30.1738V7.9982H0.101562ZM13.6341 2.00098V16.994H16.6413V2.00098H13.6341Z" fill="#CC0000"/>
<path d="M0.101563 16.994L10.1257 11.9963H12.367L2.34295 16.994H0.101563H0.101563ZM0.101563 2.00098L10.1257 6.99866H7.88426L0.101562 3.11851V2.00098H0.101563ZM17.9084 6.99866L27.9324 2.00098H30.1738L20.1497 6.99866H17.9084ZM30.1738 16.994L20.1497 11.9963H22.3911L30.1738 15.8765V16.994Z" fill="#CC0000"/>
</svg>
