<svg width="31" height="18" viewBox="0 0 31 18" fill="none" xmlns="http://www.w3.org/2000/svg">
<path d="M30.0806 0.0844727H0.101562V17.5742H30.0806V0.0844727Z" fill="#D00027"/>
<path d="M8.84264 4.45251C11.255 4.45251 13.2165 6.40818 13.2165 8.8264C13.2165 11.2388 11.2609 13.2003 8.84264 13.2003C6.43027 13.2003 4.46875 11.2446 4.46875 8.8264C4.47461 6.41403 6.43027 4.45251 8.84264 4.45251Z" fill="white"/>
<path d="M9.93896 5.33081C11.8712 5.33081 13.4346 6.90002 13.4346 8.82641C13.4346 10.7586 11.8712 12.322 9.93896 12.322C8.00672 12.322 6.44336 10.7528 6.44336 8.82641C6.44336 6.89417 8.00672 5.33081 9.93896 5.33081Z" fill="#D00027"/>
<path d="M12.5371 8.82641L14.6157 9.49976L14.9553 8.46338L12.5371 8.82641Z" fill="white"/>
<path d="M12.5371 8.82643L14.6157 8.15308L14.9553 9.18946L12.5371 8.82643Z" fill="white"/>
<path d="M14.0488 6.7478V8.93182H15.1438L14.0488 6.7478Z" fill="white"/>
<path d="M14.0488 6.7478L15.337 8.5161L14.4528 9.16018L14.0488 6.7478Z" fill="white"/>
<path d="M14.0488 10.905L15.337 9.13676L14.4528 8.49268L14.0488 10.905Z" fill="white"/>
<path d="M14.0488 10.9051V8.72107H15.1438L14.0488 10.9051Z" fill="white"/>
<path d="M16.4966 7.54407L14.418 8.21742L14.7517 9.25381L16.4966 7.54407Z" fill="white"/>
<path d="M16.4965 7.54407L15.2084 9.31236L14.3242 8.66828L16.4965 7.54407Z" fill="white"/>
<path d="M16.4965 10.1087L15.2084 8.34045L14.3242 8.98454L16.4965 10.1087Z" fill="white"/>
<path d="M16.4966 10.1087L14.418 9.43531L14.7517 8.39893L16.4966 10.1087Z" fill="white"/>
</svg>
