<svg width="75" height="26" viewBox="0 0 75 26" fill="none" xmlns="http://www.w3.org/2000/svg">
<path d="M11.5548 14.9079C11.534 12.8148 13.2617 11.8109 13.3389 11.7602C12.368 10.3406 10.8552 10.1458 10.3169 10.1236C9.03052 9.99294 7.80564 10.8813 7.15307 10.8813C6.50183 10.8813 5.49358 10.1427 4.42689 10.1615C3.02367 10.1824 1.73028 10.9777 1.00818 12.2338C-0.449116 14.7618 0.635374 18.5083 2.05539 20.5601C2.74961 21.563 3.57751 22.6915 4.66367 22.6501C5.71055 22.6088 6.10552 21.9731 7.37104 21.9731C8.63656 21.9731 8.9919 22.6501 10.0992 22.629C11.225 22.6085 11.9387 21.607 12.6272 20.6001C13.4242 19.435 13.7524 18.3068 13.7719 18.2497C13.7473 18.2383 11.5773 17.407 11.5548 14.9079Z" fill="black"/>
<path d="M9.47407 8.76562C10.0501 8.06636 10.4403 7.09472 10.3342 6.12744C9.50295 6.16103 8.49672 6.67993 7.8999 7.37852C7.36521 7.99852 6.89769 8.98561 7.02297 9.93542C7.95027 10.0073 8.89605 9.46353 9.47407 8.76562Z" fill="black"/>
<path d="M26.4883 10.5907L22.665 21.6825H20.3535L25.1699 8.88562H26.6465L26.4883 10.5907ZM29.6875 21.6825L25.8555 10.5907L25.6885 8.88562H27.1738L32.0078 21.6825H29.6875ZM29.5029 16.9364V18.6854H22.542V16.9364H29.5029ZM35.1982 14.0009V25.3387H33.0801V12.1727H35.0312L35.1982 14.0009ZM41.3945 16.8397V17.0243C41.3945 17.7157 41.3125 18.3573 41.1484 18.9491C40.9902 19.535 40.7529 20.0477 40.4365 20.4872C40.126 20.9208 39.7422 21.2577 39.2852 21.4979C38.8281 21.7382 38.3008 21.8583 37.7031 21.8583C37.1113 21.8583 36.5928 21.7499 36.1475 21.5331C35.708 21.3104 35.3359 20.9969 35.0312 20.5927C34.7266 20.1884 34.4805 19.7137 34.293 19.1688C34.1113 18.618 33.9824 18.0145 33.9062 17.3583V16.6464C33.9824 15.9491 34.1113 15.3163 34.293 14.7479C34.4805 14.1796 34.7266 13.6903 35.0312 13.2802C35.3359 12.87 35.708 12.5536 36.1475 12.3309C36.5869 12.1083 37.0996 11.9969 37.6855 11.9969C38.2832 11.9969 38.8135 12.1141 39.2764 12.3485C39.7393 12.577 40.1289 12.9052 40.4453 13.3329C40.7617 13.7548 40.999 14.2645 41.1572 14.8622C41.3154 15.454 41.3945 16.1132 41.3945 16.8397ZM39.2764 17.0243V16.8397C39.2764 16.4003 39.2354 15.993 39.1533 15.618C39.0713 15.2372 38.9424 14.9032 38.7666 14.6161C38.5908 14.329 38.3652 14.1063 38.0898 13.9481C37.8203 13.7841 37.4951 13.702 37.1143 13.702C36.7393 13.702 36.417 13.7665 36.1475 13.8954C35.8779 14.0184 35.6523 14.1913 35.4707 14.4139C35.2891 14.6366 35.1484 14.8973 35.0488 15.1962C34.9492 15.4891 34.8789 15.8085 34.8379 16.1542V17.8593C34.9082 18.2811 35.0283 18.6678 35.1982 19.0194C35.3682 19.371 35.6084 19.6522 35.9189 19.8632C36.2354 20.0682 36.6396 20.1708 37.1318 20.1708C37.5127 20.1708 37.8379 20.0887 38.1074 19.9247C38.377 19.7606 38.5967 19.535 38.7666 19.2479C38.9424 18.955 39.0713 18.618 39.1533 18.2372C39.2354 17.8563 39.2764 17.452 39.2764 17.0243ZM45.3232 14.0009V25.3387H43.2051V12.1727H45.1562L45.3232 14.0009ZM51.5195 16.8397V17.0243C51.5195 17.7157 51.4375 18.3573 51.2734 18.9491C51.1152 19.535 50.8779 20.0477 50.5615 20.4872C50.251 20.9208 49.8672 21.2577 49.4102 21.4979C48.9531 21.7382 48.4258 21.8583 47.8281 21.8583C47.2363 21.8583 46.7178 21.7499 46.2725 21.5331C45.833 21.3104 45.4609 20.9969 45.1562 20.5927C44.8516 20.1884 44.6055 19.7137 44.418 19.1688C44.2363 18.618 44.1074 18.0145 44.0312 17.3583V16.6464C44.1074 15.9491 44.2363 15.3163 44.418 14.7479C44.6055 14.1796 44.8516 13.6903 45.1562 13.2802C45.4609 12.87 45.833 12.5536 46.2725 12.3309C46.7119 12.1083 47.2246 11.9969 47.8105 11.9969C48.4082 11.9969 48.9385 12.1141 49.4014 12.3485C49.8643 12.577 50.2539 12.9052 50.5703 13.3329C50.8867 13.7548 51.124 14.2645 51.2822 14.8622C51.4404 15.454 51.5195 16.1132 51.5195 16.8397ZM49.4014 17.0243V16.8397C49.4014 16.4003 49.3604 15.993 49.2783 15.618C49.1963 15.2372 49.0674 14.9032 48.8916 14.6161C48.7158 14.329 48.4902 14.1063 48.2148 13.9481C47.9453 13.7841 47.6201 13.702 47.2393 13.702C46.8643 13.702 46.542 13.7665 46.2725 13.8954C46.0029 14.0184 45.7773 14.1913 45.5957 14.4139C45.4141 14.6366 45.2734 14.8973 45.1738 15.1962C45.0742 15.4891 45.0039 15.8085 44.9629 16.1542V17.8593C45.0332 18.2811 45.1533 18.6678 45.3232 19.0194C45.4932 19.371 45.7334 19.6522 46.0439 19.8632C46.3604 20.0682 46.7646 20.1708 47.2568 20.1708C47.6377 20.1708 47.9629 20.0887 48.2324 19.9247C48.502 19.7606 48.7217 19.535 48.8916 19.2479C49.0674 18.955 49.1963 18.618 49.2783 18.2372C49.3604 17.8563 49.4014 17.452 49.4014 17.0243ZM55.5889 8.1825V21.6825H53.4619V8.1825H55.5889ZM62.1016 21.8583C61.3984 21.8583 60.7627 21.744 60.1943 21.5155C59.6318 21.2811 59.1514 20.9559 58.7529 20.5399C58.3604 20.1239 58.0586 19.6346 57.8477 19.0721C57.6367 18.5096 57.5312 17.9032 57.5312 17.2528V16.9012C57.5312 16.1571 57.6396 15.4833 57.8564 14.8798C58.0732 14.2762 58.375 13.7606 58.7617 13.3329C59.1484 12.8993 59.6055 12.5682 60.1328 12.3397C60.6602 12.1112 61.2314 11.9969 61.8467 11.9969C62.5264 11.9969 63.1211 12.1112 63.6309 12.3397C64.1406 12.5682 64.5625 12.8905 64.8965 13.3065C65.2363 13.7167 65.4883 14.2059 65.6523 14.7743C65.8223 15.3427 65.9072 15.9696 65.9072 16.6552V17.5604H58.5596V16.0399H63.8154V15.8729C63.8037 15.4921 63.7275 15.1346 63.5869 14.8007C63.4521 14.4667 63.2441 14.1971 62.9629 13.9921C62.6816 13.787 62.3066 13.6844 61.8379 13.6844C61.4863 13.6844 61.1729 13.7606 60.8975 13.913C60.6279 14.0594 60.4023 14.2733 60.2207 14.5546C60.0391 14.8358 59.8984 15.1757 59.7988 15.5741C59.7051 15.9667 59.6582 16.4091 59.6582 16.9012V17.2528C59.6582 17.6688 59.7139 18.0555 59.8252 18.413C59.9424 18.7645 60.1123 19.0721 60.335 19.3358C60.5576 19.5995 60.8271 19.8075 61.1436 19.9598C61.46 20.1063 61.8203 20.1796 62.2246 20.1796C62.7344 20.1796 63.1885 20.077 63.5869 19.8719C63.9854 19.6669 64.3311 19.3768 64.624 19.0018L65.7402 20.0829C65.5352 20.3817 65.2686 20.6688 64.9404 20.9442C64.6123 21.2137 64.2109 21.4335 63.7363 21.6034C63.2676 21.7733 62.7227 21.8583 62.1016 21.8583Z" fill="black"/>
</svg>
