<svg xmlns="http://www.w3.org/2000/svg" width="37" height="23" viewBox="0 0 37 23" fill="none">
    <path d="M33.953 1.21569C34.9028 1.21569 35.6755 1.98836 35.6755 2.93817V20.6181C35.6755 21.5679 34.9028 22.3406 33.953 22.3406H2.98517C2.03543 22.3406 1.26269 21.568 1.26269 20.6181V2.93817C1.26269 1.98843 2.03536 1.21569 2.98517 1.21569H33.953V1.21569ZM33.953 0.872925H2.98517C1.84457 0.872925 0.919922 1.79758 0.919922 2.93817V20.6181C0.919922 21.7588 1.84457 22.6834 2.98517 22.6834H33.953C35.0937 22.6834 36.0183 21.7588 36.0183 20.6181V2.93817C36.0183 1.79758 35.0936 0.872925 33.953 0.872925Z" fill="#434D56"/>
    <path d="M9.31522 7.384C9.14431 7.5947 8.92812 7.76418 8.68272 7.87984C8.43732 7.99551 8.169 8.0544 7.89771 8.05212C7.86622 7.51417 8.04787 6.98546 8.40332 6.58045C8.76206 6.16701 9.26671 5.90822 9.8118 5.85815C9.83337 6.13264 9.80062 6.40869 9.71541 6.67051C9.6302 6.93233 9.49421 7.17479 9.31522 7.384ZM9.8118 8.16047C9.0263 8.11532 8.35818 8.60288 8.00606 8.60288C7.65394 8.60288 7.10319 8.18756 6.43507 8.19658C6.02879 8.20472 5.63172 8.319 5.28327 8.52807C4.93482 8.73714 4.64713 9.03372 4.44876 9.38837C3.60909 10.842 4.23207 12.9998 5.05368 14.1826C5.45094 14.7604 5.95655 15.4105 6.56147 15.3834C7.16639 15.3563 7.39211 14.9952 8.1144 14.9952C8.8367 14.9952 9.01727 15.3834 9.67637 15.3744C10.3355 15.3654 10.7418 14.7875 11.148 14.2007C11.4286 13.786 11.6475 13.3329 11.7981 12.8554C11.421 12.692 11.0997 12.4223 10.8736 12.0791C10.6474 11.7359 10.5263 11.3342 10.5251 10.9232C10.5316 10.5601 10.6292 10.2044 10.8091 9.88891C10.9889 9.57339 11.2452 9.30813 11.5543 9.11751C11.3553 8.83722 11.0948 8.60611 10.7928 8.44182C10.4908 8.27752 10.1553 8.18438 9.8118 8.1695V8.16047ZM14.3261 6.53531V15.3383H15.7346V12.3046H17.6216C18.0088 12.3264 18.3962 12.2669 18.7591 12.13C19.1219 11.9931 19.4521 11.7818 19.7284 11.5097C20.0048 11.2376 20.2211 10.9107 20.3636 10.5501C20.5061 10.1894 20.5716 9.80294 20.5559 9.41546C20.5739 9.03126 20.5116 8.64754 20.3727 8.28885C20.2339 7.93016 20.0217 7.60441 19.7498 7.33244C19.4778 7.06048 19.152 6.84829 18.7934 6.70947C18.4347 6.57066 18.0509 6.50826 17.6668 6.52628L14.3261 6.53531ZM15.7346 7.68195H17.2695C17.5108 7.64767 17.7568 7.66782 17.9894 7.74092C18.2219 7.81403 18.4352 7.93824 18.6135 8.10445C18.7918 8.27066 18.9307 8.47466 19.02 8.7015C19.1093 8.92835 19.1466 9.17229 19.1294 9.41546C19.1463 9.66011 19.1086 9.90547 19.0189 10.1337C18.9292 10.362 18.7899 10.5674 18.6109 10.7351C18.432 10.9028 18.218 11.0286 17.9844 11.1033C17.7508 11.178 17.5035 11.1998 17.2605 11.167H15.7346V7.68195ZM23.0117 15.3383C23.4154 15.348 23.8143 15.2493 24.1669 15.0524C24.5194 14.8554 24.8127 14.5676 25.0161 14.2187V14.2187V15.3383H26.2801V10.9413C26.2801 9.66826 25.2689 8.85568 23.7069 8.85568C22.145 8.85568 21.215 9.68632 21.1518 10.8239H22.3797C22.45 10.5431 22.6193 10.2971 22.8565 10.1312C23.0937 9.96526 23.3829 9.89065 23.6708 9.92106C24.5015 9.92106 24.971 10.3183 24.971 11.0316V11.5101L23.2645 11.6185C21.6845 11.7087 20.8268 12.3588 20.8268 13.4874C20.8358 13.757 20.9011 14.0217 21.0186 14.2645C21.1361 14.5073 21.3032 14.7228 21.509 14.8972C21.7148 15.0715 21.9548 15.2008 22.2137 15.2768C22.4725 15.3528 22.7443 15.3737 23.0117 15.3383V15.3383ZM23.3729 14.3C22.6506 14.3 22.1901 13.9479 22.1901 13.3971C22.1901 12.8464 22.6325 12.4942 23.4812 12.4942L24.998 12.3949V12.8915C24.994 13.0957 24.9478 13.2968 24.8624 13.4823C24.7769 13.6677 24.654 13.8335 24.5013 13.9692C24.3487 14.1048 24.1697 14.2075 23.9755 14.2706C23.7813 14.3338 23.5761 14.3561 23.3729 14.3361V14.3ZM27.9956 17.6586C29.3228 17.6586 29.9458 17.153 30.4965 15.6182L32.8891 8.93694H31.5077L29.9006 14.1284L28.2935 8.93694H26.8399L29.1512 15.3383L29.0248 15.7265C28.9786 15.9919 28.836 16.2309 28.6244 16.3975C28.4128 16.5641 28.147 16.6467 27.8782 16.6294H27.4719V17.6857C27.6462 17.6982 27.821 17.7012 27.9956 17.6948V17.6586Z" fill="black"/>
</svg>