<svg width="44" height="18" viewBox="0 0 44 18" fill="none" xmlns="http://www.w3.org/2000/svg">
    <path d="M8.42222 2.46808C7.91977 3.06265 7.11585 3.53161 6.31192 3.46462C6.21143 2.66069 6.60502 1.80652 7.0656 1.27894C7.56806 0.667626 8.44735 0.232166 9.15916 0.198669C9.2429 1.03609 8.9163 1.85676 8.42222 2.46808ZM9.15078 3.62373C7.98677 3.55673 6.99023 4.28529 6.43754 4.28529C5.87646 4.28529 5.03067 3.65722 4.1095 3.67397C2.91199 3.69072 1.79822 4.36903 1.1869 5.44931C-0.0692338 7.60985 0.860305 10.8088 2.07457 12.5674C2.66914 13.4383 3.38094 14.393 4.31886 14.3595C5.20652 14.326 5.55824 13.7817 6.63014 13.7817C7.71042 13.7817 8.02026 14.3595 8.95818 14.3427C9.92959 14.326 10.5409 13.4718 11.1355 12.6009C11.8138 11.6127 12.0901 10.6497 12.1069 10.5995C12.0901 10.5827 10.2311 9.87089 10.2143 7.72709C10.1976 5.93501 11.6798 5.08084 11.7468 5.03059C10.9094 3.79121 9.60299 3.65722 9.15078 3.62373ZM15.8753 1.1952V14.2506H17.9018V9.78715H20.7072C23.2697 9.78715 25.0702 8.02856 25.0702 5.4828C25.0702 2.93704 23.3032 1.1952 20.7742 1.1952H15.8753ZM17.9018 2.90354H20.2383C21.9968 2.90354 23.0017 3.84145 23.0017 5.49118C23.0017 7.1409 21.9968 8.08718 20.2299 8.08718H17.9018V2.90354ZM28.7716 14.3511C30.0445 14.3511 31.2252 13.7063 31.7612 12.6846H31.803V14.2506H33.6789V7.75221C33.6789 5.86802 32.1715 4.65375 29.8519 4.65375C27.6997 4.65375 26.1086 5.88476 26.05 7.57636H27.8755C28.0263 6.77243 28.7716 6.24486 29.7932 6.24486C31.0326 6.24486 31.7277 6.82268 31.7277 7.8862V8.60639L29.1987 8.75712C26.8455 8.89948 25.5726 9.86252 25.5726 11.5374C25.5726 13.229 26.8874 14.3511 28.7716 14.3511ZM29.3159 12.8019C28.2356 12.8019 27.5489 12.2827 27.5489 11.4871C27.5489 10.6664 28.2105 10.1891 29.475 10.1137L31.7277 9.97138V10.7083C31.7277 11.931 30.6893 12.8019 29.3159 12.8019ZM36.1828 17.8013C38.1591 17.8013 39.0886 17.0476 39.9009 14.7614L43.46 4.77937H41.3999L39.0133 12.492H38.9714L36.5847 4.77937H34.466L37.8995 14.2841L37.7152 14.8619C37.4054 15.8417 36.9029 16.2186 36.0069 16.2186C35.8478 16.2186 35.5379 16.2018 35.4123 16.1851V17.751C35.5296 17.7845 36.032 17.8013 36.1828 17.8013Z" fill="black"></path>
</svg>