<svg width="21" height="21" viewBox="0 0 21 21" fill="none" xmlns="http://www.w3.org/2000/svg">
    <path d="M8.2382 17.3411C7.1984 17.3411 6.34766 18.1644 6.34766 19.1706C6.34766 20.1769 7.1984 21.0002 8.2382 21.0002C9.278 21.0002 10.1287 20.1769 10.1287 19.1706C10.1287 18.1644 9.278 17.3411 8.2382 17.3411ZM8.2382 20.0854C7.7183 20.0854 7.29293 19.6737 7.29293 19.1706C7.29293 18.6675 7.7183 18.2558 8.2382 18.2558C8.7581 18.2558 9.18347 18.6675 9.18347 19.1706C9.18347 19.6737 8.7581 20.0854 8.2382 20.0854Z" fill="#434D56"/>
    <path d="M16.746 17.3408C15.7062 17.3408 14.8555 18.1641 14.8555 19.1704C14.8555 20.1766 15.7062 20.9999 16.746 20.9999C17.7858 20.9999 18.6366 20.1766 18.6366 19.1704C18.6366 18.1641 17.7858 17.3408 16.746 17.3408ZM16.746 20.0852C16.2261 20.0852 15.8007 19.6735 15.8007 19.1704C15.8007 18.6672 16.2261 18.2556 16.746 18.2556C17.2659 18.2556 17.6913 18.6672 17.6913 19.1704C17.6913 19.6735 17.2659 20.0852 16.746 20.0852Z" fill="#434D56"/>
    <path d="M19.8648 4.25968C19.5339 3.84803 18.9668 3.61933 18.3996 3.61933H5.30759L5.11853 2.43012C4.97674 1.56108 4.17326 0.875 3.22799 0.875H0.203125V1.78978H3.22799C3.70063 1.78978 4.126 2.10995 4.17326 2.56734L6.15833 14.9626C6.34739 15.8316 7.15087 16.472 8.04887 16.472H18.1633V15.5572H8.04887C7.57624 15.5572 7.19813 15.237 7.1036 14.7796L6.91455 13.6819H17.4071C18.3051 13.6819 19.1085 13.0416 19.2976 12.081L20.2901 5.67759C20.3847 5.17446 20.2429 4.67133 19.8648 4.25968ZM19.3449 5.58611L18.3523 11.9896C18.2578 12.4927 17.8797 12.8129 17.4071 12.8129H6.77276L5.44938 4.57985H18.3996C18.6832 4.57985 18.9668 4.71707 19.1558 4.90002C19.3449 5.03724 19.3921 5.31167 19.3449 5.58611Z" fill="#434D56"/>
</svg>
