<svg width="21" height="21" viewBox="0 0 21 21" fill="none" xmlns="http://www.w3.org/2000/svg">
<rect x="0.553223" y="0.605957" width="19.5" height="19.5" rx="2.75" fill="white" stroke="#C0D0DD" stroke-width="0.5"/>
<path d="M14.3884 6.95321C14.5247 6.82412 14.5247 6.61482 14.3884 6.48573C14.2522 6.35664 14.0312 6.35664 13.895 6.48573L6.21792 13.7587C6.08166 13.8878 6.08166 14.0971 6.21792 14.2262C6.35418 14.3553 6.57511 14.3553 6.71137 14.2262L14.3884 6.95321Z" fill="#434D56"/>
<path d="M6.71137 6.48573C6.57511 6.35664 6.35418 6.35664 6.21792 6.48573C6.08166 6.61482 6.08166 6.82412 6.21792 6.95321L13.895 14.2262C14.0313 14.3553 14.2522 14.3553 14.3884 14.2262C14.5247 14.0971 14.5247 13.8878 14.3884 13.7587L6.71137 6.48573Z" fill="#434D56"/>
</svg>
