<svg width="32" height="29" viewBox="0 0 32 29" fill="none" xmlns="http://www.w3.org/2000/svg">
    <path d="M2.52075 3.94507H29.5495" stroke="#434D56" stroke-width="0.7" stroke-miterlimit="2.6131" stroke-linecap="round" stroke-linejoin="round"></path>
    <path d="M29.5496 3.94507C30.2398 3.94507 30.8055 4.51074 30.8055 5.20146" stroke="#434D56" stroke-width="0.7" stroke-miterlimit="2.6131" stroke-linecap="round" stroke-linejoin="round"></path>
    <path d="M30.8054 5.20166V26.4665" stroke="#434D56" stroke-width="0.7" stroke-miterlimit="2.6131" stroke-linecap="round" stroke-linejoin="round"></path>
    <path d="M30.8055 26.4663C30.8055 27.1599 30.2398 27.7256 29.5496 27.7256" stroke="#434D56" stroke-width="0.7" stroke-miterlimit="2.6131" stroke-linecap="round" stroke-linejoin="round"></path>
    <path d="M29.5495 27.7253H2.52075" stroke="#434D56" stroke-width="0.7" stroke-miterlimit="2.6131" stroke-linecap="round" stroke-linejoin="round"></path>
    <path d="M2.52076 27.7256C1.83004 27.7256 1.26489 27.16 1.26489 26.4663" stroke="#434D56" stroke-width="0.7" stroke-miterlimit="2.6131" stroke-linecap="round" stroke-linejoin="round"></path>
    <path d="M1.26489 26.4665V5.20166" stroke="#434D56" stroke-width="0.7" stroke-miterlimit="2.6131" stroke-linecap="round" stroke-linejoin="round"></path>
    <path d="M1.26489 5.20146C1.26489 4.51074 1.83004 3.94507 2.52076 3.94507" stroke="#434D56" stroke-width="0.7" stroke-miterlimit="2.6131" stroke-linecap="round" stroke-linejoin="round"></path>
    <path d="M7.15491 1.04395V6.17546" stroke="#434D56" stroke-width="0.7" stroke-miterlimit="2.6131" stroke-linecap="round" stroke-linejoin="round"></path>
    <path d="M7.15476 8.85395C7.84607 8.85395 8.41056 8.28723 8.41056 7.59756C8.41056 6.90618 7.84607 6.34058 7.15476 6.34058C6.46338 6.34058 5.89941 6.90624 5.89941 7.59756C5.89941 8.2873 6.46344 8.85395 7.15476 8.85395Z" stroke="#434D56" stroke-width="0.7" stroke-miterlimit="2.6131" stroke-linecap="round" stroke-linejoin="round"></path>
    <path d="M24.9167 1.04395V6.34082" stroke="#434D56" stroke-width="0.7" stroke-miterlimit="2.6131" stroke-linecap="round" stroke-linejoin="round"></path>
    <path d="M24.9167 8.85395C25.6069 8.85395 26.1703 8.28723 26.1703 7.59756C26.1703 6.90618 25.6069 6.34058 24.9167 6.34058C24.2242 6.34058 23.6608 6.90624 23.6608 7.59756C23.6608 8.2873 24.2242 8.85395 24.9167 8.85395Z" stroke="#434D56" stroke-width="0.7" stroke-miterlimit="2.6131" stroke-linecap="round" stroke-linejoin="round"></path>
    <path d="M4.5625 11.9392H27.5089" stroke="#434D56" stroke-width="0.7" stroke-miterlimit="2.6131" stroke-linecap="round" stroke-linejoin="round"></path>
    <path d="M5.25952 15.1379H6.37372" stroke="#434D56" stroke-width="0.7" stroke-miterlimit="2.6131" stroke-linecap="round" stroke-linejoin="round"></path>
    <path d="M6.3739 15.1379C6.75872 15.1379 7.07296 15.4511 7.07296 15.8347" stroke="#434D56" stroke-width="0.7" stroke-miterlimit="2.6131" stroke-linecap="round" stroke-linejoin="round"></path>
    <path d="M7.073 15.8345V16.9503" stroke="#434D56" stroke-width="0.7" stroke-miterlimit="2.6131" stroke-linecap="round" stroke-linejoin="round"></path>
    <path d="M7.07296 16.9509C7.07296 17.3335 6.75872 17.6489 6.3739 17.6489" stroke="#434D56" stroke-width="0.7" stroke-miterlimit="2.6131" stroke-linecap="round" stroke-linejoin="round"></path>
    <path d="M6.37372 17.6487H5.25952" stroke="#434D56" stroke-width="0.7" stroke-miterlimit="2.6131" stroke-linecap="round" stroke-linejoin="round"></path>
    <path d="M5.25985 17.6489C4.87622 17.6489 4.5625 17.3335 4.5625 16.9509" stroke="#434D56" stroke-width="0.7" stroke-miterlimit="2.6131" stroke-linecap="round" stroke-linejoin="round"></path>
    <path d="M4.5625 16.9503V15.8345" stroke="#434D56" stroke-width="0.7" stroke-miterlimit="2.6131" stroke-linecap="round" stroke-linejoin="round"></path>
    <path d="M4.5625 15.8347C4.5625 15.451 4.87622 15.1379 5.25985 15.1379" stroke="#434D56" stroke-width="0.7" stroke-miterlimit="2.6131" stroke-linecap="round" stroke-linejoin="round"></path>
    <path d="M18.4817 15.1379H19.5964" stroke="#434D56" stroke-width="0.7" stroke-miterlimit="2.6131" stroke-linecap="round" stroke-linejoin="round"></path>
    <path d="M19.5963 15.1379C19.9801 15.1379 20.2943 15.4511 20.2943 15.8347" stroke="#434D56" stroke-width="0.7" stroke-miterlimit="2.6131" stroke-linecap="round" stroke-linejoin="round"></path>
    <path d="M20.2942 15.8345V16.9503" stroke="#434D56" stroke-width="0.7" stroke-miterlimit="2.6131" stroke-linecap="round" stroke-linejoin="round"></path>
    <path d="M20.2943 16.9509C20.2943 17.3335 19.9801 17.6489 19.5963 17.6489" stroke="#434D56" stroke-width="0.7" stroke-miterlimit="2.6131" stroke-linecap="round" stroke-linejoin="round"></path>
    <path d="M19.5964 17.6487H18.4817" stroke="#434D56" stroke-width="0.7" stroke-miterlimit="2.6131" stroke-linecap="round" stroke-linejoin="round"></path>
    <path d="M18.4818 17.6489C18.0981 17.6489 17.7838 17.3335 17.7838 16.9509" stroke="#434D56" stroke-width="0.7" stroke-miterlimit="2.6131" stroke-linecap="round" stroke-linejoin="round"></path>
    <path d="M17.7838 16.9503V15.8345" stroke="#434D56" stroke-width="0.7" stroke-miterlimit="2.6131" stroke-linecap="round" stroke-linejoin="round"></path>
    <path d="M17.7838 15.8347C17.7838 15.451 18.0981 15.1379 18.4818 15.1379" stroke="#434D56" stroke-width="0.7" stroke-miterlimit="2.6131" stroke-linecap="round" stroke-linejoin="round"></path>
    <path d="M25.0927 15.1379H26.2085" stroke="#434D56" stroke-width="0.7" stroke-miterlimit="2.6131" stroke-linecap="round" stroke-linejoin="round"></path>
    <path d="M26.2089 15.1379C26.5926 15.1379 26.9057 15.4511 26.9057 15.8347" stroke="#434D56" stroke-width="0.7" stroke-miterlimit="2.6131" stroke-linecap="round" stroke-linejoin="round"></path>
    <path d="M26.9058 15.8345V16.9503" stroke="#434D56" stroke-width="0.7" stroke-miterlimit="2.6131" stroke-linecap="round" stroke-linejoin="round"></path>
    <path d="M26.9057 16.9509C26.9057 17.3335 26.5925 17.6489 26.2089 17.6489" stroke="#434D56" stroke-width="0.7" stroke-miterlimit="2.6131" stroke-linecap="round" stroke-linejoin="round"></path>
    <path d="M26.2085 17.6487H25.0927" stroke="#434D56" stroke-width="0.7" stroke-miterlimit="2.6131" stroke-linecap="round" stroke-linejoin="round"></path>
    <path d="M25.0926 17.6489C24.7089 17.6489 24.3959 17.3335 24.3959 16.9509" stroke="#434D56" stroke-width="0.7" stroke-miterlimit="2.6131" stroke-linecap="round" stroke-linejoin="round"></path>
    <path d="M24.3959 16.9503V15.8345" stroke="#434D56" stroke-width="0.7" stroke-miterlimit="2.6131" stroke-linecap="round" stroke-linejoin="round"></path>
    <path d="M24.3959 15.8347C24.3959 15.451 24.709 15.1379 25.0927 15.1379" stroke="#434D56" stroke-width="0.7" stroke-miterlimit="2.6131" stroke-linecap="round" stroke-linejoin="round"></path>
    <path d="M5.25952 21.5928H6.37372" stroke="#434D56" stroke-width="0.7" stroke-miterlimit="2.6131" stroke-linecap="round" stroke-linejoin="round"></path>
    <path d="M6.3739 21.5928C6.75872 21.5928 7.07296 21.907 7.07296 22.2896" stroke="#434D56" stroke-width="0.7" stroke-miterlimit="2.6131" stroke-linecap="round" stroke-linejoin="round"></path>
    <path d="M7.073 22.2893V23.4063" stroke="#434D56" stroke-width="0.7" stroke-miterlimit="2.6131" stroke-linecap="round" stroke-linejoin="round"></path>
    <path d="M7.07296 23.4062C7.07296 23.7888 6.75872 24.1031 6.3739 24.1031" stroke="#434D56" stroke-width="0.7" stroke-miterlimit="2.6131" stroke-linecap="round" stroke-linejoin="round"></path>
    <path d="M6.37372 24.103H5.25952" stroke="#434D56" stroke-width="0.7" stroke-miterlimit="2.6131" stroke-linecap="round" stroke-linejoin="round"></path>
    <path d="M5.25985 24.1031C4.87622 24.1031 4.5625 23.7888 4.5625 23.4062" stroke="#434D56" stroke-width="0.7" stroke-miterlimit="2.6131" stroke-linecap="round" stroke-linejoin="round"></path>
    <path d="M4.5625 23.4063V22.2893" stroke="#434D56" stroke-width="0.7" stroke-miterlimit="2.6131" stroke-linecap="round" stroke-linejoin="round"></path>
    <path d="M4.5625 22.2896C4.5625 21.907 4.87622 21.5928 5.25985 21.5928" stroke="#434D56" stroke-width="0.7" stroke-miterlimit="2.6131" stroke-linecap="round" stroke-linejoin="round"></path>
    <path d="M11.8705 21.5928H12.9857" stroke="#434D56" stroke-width="0.7" stroke-miterlimit="2.6131" stroke-linecap="round" stroke-linejoin="round"></path>
    <path d="M12.9857 21.5928C13.37 21.5928 13.6837 21.907 13.6837 22.2896" stroke="#434D56" stroke-width="0.7" stroke-miterlimit="2.6131" stroke-linecap="round" stroke-linejoin="round"></path>
    <path d="M13.6835 22.2893V23.4063" stroke="#434D56" stroke-width="0.7" stroke-miterlimit="2.6131" stroke-linecap="round" stroke-linejoin="round"></path>
    <path d="M13.6837 23.4062C13.6837 23.7888 13.37 24.1031 12.9857 24.1031" stroke="#434D56" stroke-width="0.7" stroke-miterlimit="2.6131" stroke-linecap="round" stroke-linejoin="round"></path>
    <path d="M12.9857 24.103H11.8705" stroke="#434D56" stroke-width="0.7" stroke-miterlimit="2.6131" stroke-linecap="round" stroke-linejoin="round"></path>
    <path d="M11.8703 24.1031C11.4872 24.1031 11.1724 23.7888 11.1724 23.4062" stroke="#434D56" stroke-width="0.7" stroke-miterlimit="2.6131" stroke-linecap="round" stroke-linejoin="round"></path>
    <path d="M11.1724 23.4063V22.2893" stroke="#434D56" stroke-width="0.7" stroke-miterlimit="2.6131" stroke-linecap="round" stroke-linejoin="round"></path>
    <path d="M11.1724 22.2896C11.1724 21.907 11.4871 21.5928 11.8703 21.5928" stroke="#434D56" stroke-width="0.7" stroke-miterlimit="2.6131" stroke-linecap="round" stroke-linejoin="round"></path>
    <path d="M18.4817 21.5928H19.5964" stroke="#434D56" stroke-width="0.7" stroke-miterlimit="2.6131" stroke-linecap="round" stroke-linejoin="round"></path>
    <path d="M19.5963 21.5928C19.9801 21.5928 20.2943 21.907 20.2943 22.2896" stroke="#434D56" stroke-width="0.7" stroke-miterlimit="2.6131" stroke-linecap="round" stroke-linejoin="round"></path>
    <path d="M20.2942 22.2893V23.4063" stroke="#434D56" stroke-width="0.7" stroke-miterlimit="2.6131" stroke-linecap="round" stroke-linejoin="round"></path>
    <path d="M20.2943 23.4062C20.2943 23.7888 19.9801 24.1031 19.5963 24.1031" stroke="#434D56" stroke-width="0.7" stroke-miterlimit="2.6131" stroke-linecap="round" stroke-linejoin="round"></path>
    <path d="M19.5964 24.103H18.4817" stroke="#434D56" stroke-width="0.7" stroke-miterlimit="2.6131" stroke-linecap="round" stroke-linejoin="round"></path>
    <path d="M18.4818 24.1031C18.0981 24.1031 17.7838 23.7888 17.7838 23.4062" stroke="#434D56" stroke-width="0.7" stroke-miterlimit="2.6131" stroke-linecap="round" stroke-linejoin="round"></path>
    <path d="M17.7838 23.4063V22.2893" stroke="#434D56" stroke-width="0.7" stroke-miterlimit="2.6131" stroke-linecap="round" stroke-linejoin="round"></path>
    <path d="M17.7838 22.2896C17.7838 21.907 18.0981 21.5928 18.4818 21.5928" stroke="#434D56" stroke-width="0.7" stroke-miterlimit="2.6131" stroke-linecap="round" stroke-linejoin="round"></path>
    <path d="M11.4368 16.2097L12.3662 17.0632" stroke="#434D56" stroke-width="0.7" stroke-miterlimit="2.6131" stroke-linecap="round" stroke-linejoin="round"></path>
    <path d="M14.071 15.2017L12.3663 17.0629" stroke="#434D56" stroke-width="0.7" stroke-miterlimit="2.6131" stroke-linecap="round" stroke-linejoin="round"></path>
    <path d="M24.8469 22.6655L25.7765 23.5178" stroke="#434D56" stroke-width="0.7" stroke-miterlimit="2.6131" stroke-linecap="round" stroke-linejoin="round"></path>
    <path d="M27.4811 21.6567L25.7765 23.5179" stroke="#434D56" stroke-width="0.7" stroke-miterlimit="2.6131" stroke-linecap="round" stroke-linejoin="round"></path>
</svg>