<svg width="15" height="16" viewBox="0 0 15 16" fill="none" xmlns="http://www.w3.org/2000/svg">
<path d="M7.49939 0.972809C6.0902 0.972809 4.71265 1.39068 3.54095 2.17359C2.36925 2.95649 1.45603 4.06926 0.916751 5.37119C0.377477 6.67311 0.236378 8.10571 0.511298 9.48782C0.786217 10.8699 1.46481 12.1395 2.46126 13.1359C3.45771 14.1324 4.72726 14.811 6.10937 15.0859C7.49149 15.3608 8.92409 15.2197 10.226 14.6804C11.5279 14.1412 12.6407 13.2279 13.4236 12.0562C14.2065 10.8845 14.6244 9.507 14.6244 8.09781C14.6223 6.20877 13.871 4.3977 12.5352 3.06195C11.1995 1.7262 9.38842 0.974872 7.49939 0.972809ZM7.49939 14.5548C6.22231 14.5548 4.97391 14.1761 3.91206 13.4666C2.8502 12.7571 2.02259 11.7487 1.53387 10.5688C1.04516 9.38894 0.917286 8.09064 1.16643 6.8381C1.41558 5.58556 2.03055 4.43503 2.93358 3.532C3.83661 2.62897 4.98715 2.01399 6.23969 1.76485C7.49223 1.5157 8.79052 1.64357 9.97039 2.13229C11.1503 2.62101 12.1587 3.44862 12.8682 4.51047C13.5777 5.57233 13.9564 6.82073 13.9564 8.09781C13.9544 9.80968 13.2734 11.4509 12.0629 12.6613C10.8524 13.8718 9.21127 14.5528 7.49939 14.5548Z" fill="#434D56"/>
<path d="M10.63 4.95715C10.5673 4.89461 10.4824 4.85948 10.3939 4.85948C10.3054 4.85948 10.2205 4.89461 10.1579 4.95715L7.49941 7.62457L4.84201 4.9527C4.77927 4.88995 4.69417 4.85471 4.60544 4.85471C4.51671 4.85471 4.43161 4.88995 4.36887 4.9527C4.30612 5.01544 4.27087 5.10054 4.27087 5.18927C4.27087 5.278 4.30612 5.3631 4.36887 5.42584L7.02738 8.09772L4.36887 10.7696C4.30627 10.8323 4.27116 10.9174 4.27127 11.006C4.27137 11.0946 4.30668 11.1796 4.36942 11.2422C4.43216 11.3048 4.5172 11.3399 4.60583 11.3398C4.69446 11.3397 4.77941 11.3044 4.84201 11.2416L7.49941 8.57086L10.1579 11.2427C10.2207 11.3055 10.3058 11.3407 10.3945 11.3407C10.4832 11.3407 10.5683 11.3055 10.6311 11.2427C10.6938 11.18 10.7291 11.0949 10.7291 11.0062C10.7291 10.9174 10.6938 10.8323 10.6311 10.7696L7.97144 8.09772L10.6311 5.42584C10.6925 5.36321 10.7267 5.27896 10.7265 5.19127C10.7263 5.10358 10.6916 5.01948 10.63 4.95715Z" fill="#434D56"/>
</svg>
