<svg width="7" height="13" viewBox="0 0 7 13" fill="none" xmlns="http://www.w3.org/2000/svg">
    <path d="M6.70267 9.45252C6.62115 9.37148 6.51086 9.32599 6.39591 9.32599C6.28095 9.32599 6.17067 9.37148 6.08914 9.45252L4.07016 11.4367V1.18513C4.07016 1.06972 4.02432 0.959047 3.94271 0.877445C3.86111 0.795843 3.75044 0.75 3.63503 0.75C3.51963 0.75 3.40895 0.795843 3.32735 0.877445C3.24575 0.959047 3.19991 1.06972 3.19991 1.18513V11.4236L1.22879 9.45252C1.18833 9.41174 1.14021 9.37937 1.08719 9.35728C1.03416 9.33519 0.977288 9.32381 0.919846 9.32381C0.862404 9.32381 0.805531 9.33519 0.752507 9.35728C0.699482 9.37937 0.651357 9.41174 0.610906 9.45252C0.529864 9.53405 0.484375 9.64433 0.484375 9.75929C0.484375 9.87424 0.529864 9.98452 0.610906 10.066L3.38266 12.8378C3.45605 12.9109 3.5554 12.9519 3.65896 12.9519C3.76253 12.9519 3.86188 12.9109 3.93527 12.8378L6.70267 10.066C6.78371 9.98452 6.8292 9.87424 6.8292 9.75929C6.8292 9.64433 6.78371 9.53405 6.70267 9.45252Z" fill="#434D56"></path>
</svg>