<svg xmlns="http://www.w3.org/2000/svg" width="36" height="23" viewBox="0 0 36 23" fill="none">
    <path d="M33.0068 1.24489C33.9553 1.24489 34.727 2.01651 34.727 2.96503V20.621C34.727 21.5695 33.9553 22.3411 33.0068 22.3411H2.081C1.13254 22.3411 0.360857 21.5695 0.360857 20.621V2.96503C0.360857 2.01658 1.13248 1.24489 2.081 1.24489H33.0068V1.24489ZM33.0068 0.902588H2.081C0.94195 0.902588 0.0185547 1.82598 0.0185547 2.96503V20.621C0.0185547 21.7601 0.94195 22.6835 2.081 22.6835H33.0068C34.1459 22.6835 35.0693 21.7601 35.0693 20.621V2.96503C35.0693 1.82598 34.1459 0.902588 33.0068 0.902588Z" fill="#434D56"/>
    <path d="M15.8393 12.2309V15.6595H14.6875V7.19246H17.7423C18.107 7.18527 18.4695 7.24634 18.809 7.37215C19.1485 7.49796 19.4583 7.68601 19.7204 7.92546C19.9852 8.15038 20.196 8.42621 20.3385 8.73442C20.481 9.04263 20.552 9.37608 20.5468 9.71236C20.5543 10.0504 20.4844 10.3861 20.3418 10.6962C20.1992 11.0064 19.9872 11.2838 19.7204 11.5094C19.1863 11.9904 18.5269 12.2307 17.7423 12.2302H15.8393V12.2309ZM15.8393 8.23488V11.1905H17.7709C17.9827 11.1964 18.1934 11.1606 18.3897 11.0852C18.5859 11.0098 18.7633 10.8966 18.9106 10.7527C19.0571 10.6183 19.1735 10.4574 19.253 10.2797C19.3325 10.102 19.3735 9.91102 19.3735 9.7181C19.3735 9.52518 19.3325 9.33422 19.253 9.15651C19.1735 8.97879 19.0571 8.81794 18.9106 8.68346C18.7652 8.53659 18.5884 8.42059 18.3919 8.34314C18.1954 8.26568 17.9838 8.22855 17.7709 8.2342H15.8393V8.23488Z" fill="#5F6368"/>
    <path d="M23.201 9.67719C24.0524 9.67719 24.7244 9.89202 25.2171 10.3217C25.7098 10.7513 25.9559 11.3405 25.9554 12.089V15.6594H24.8536V14.8555H24.8036C24.3266 15.5175 23.6923 15.8486 22.9006 15.8486C22.2247 15.8486 21.6593 15.6594 21.2043 15.2811C20.9859 15.1074 20.8114 14.89 20.6933 14.6445C20.5752 14.3991 20.5166 14.1319 20.5218 13.8624C20.5218 13.2629 20.7617 12.7862 21.2415 12.4322C21.7213 12.0782 22.3618 11.9007 23.1631 11.8998C23.8471 11.8998 24.4103 12.0181 24.8529 12.2545V12.0059C24.8542 11.8221 24.8122 11.6404 24.7299 11.4739C24.6476 11.3074 24.5271 11.1603 24.3772 11.0432C24.0726 10.7837 23.6756 10.6421 23.2654 10.6466C22.622 10.6466 22.1129 10.9029 21.738 11.4154L20.7235 10.8122C21.2816 10.0555 22.1074 9.67719 23.201 9.67719ZM21.7108 13.886C21.71 14.0244 21.7443 14.161 21.8108 14.2844C21.8772 14.4078 21.9739 14.5144 22.0928 14.5954C22.3476 14.7846 22.6638 14.8848 22.9878 14.8791C23.4739 14.8783 23.9398 14.6957 24.2835 14.3711C24.665 14.0319 24.8558 13.634 24.8558 13.1773C24.4966 12.9071 23.9959 12.772 23.3534 12.772C22.8855 12.772 22.4954 12.8785 22.183 13.0915C21.8675 13.3077 21.7108 13.5705 21.7108 13.886V13.886Z" fill="#5F6368"/>
    <path d="M32.2794 9.86639L28.4333 18.2131H27.2443L28.6716 15.2926L26.1426 9.86639H27.3946L29.2224 14.0279H29.2475L31.0253 9.86639H32.2794Z" fill="#5F6368"/>
    <path d="M12.8063 11.9013C12.8067 11.5776 12.7777 11.2543 12.7196 10.9352H7.97461V12.7652H10.6923C10.6367 13.0574 10.519 13.336 10.3463 13.5842C10.1736 13.8323 9.94946 14.0449 9.68742 14.209V15.3969H11.3094C12.2591 14.57 12.8063 13.3472 12.8063 11.9013Z" fill="#4285F4"/>
    <path d="M7.97453 16.5444C9.33234 16.5444 10.4756 16.1234 11.3093 15.3975L9.68734 14.2097C9.2359 14.4987 8.65448 14.6637 7.97453 14.6637C6.66214 14.6637 5.54822 13.8283 5.14989 12.7025H3.479V13.9266C3.89778 14.7135 4.53994 15.375 5.33378 15.8373C6.12761 16.2996 7.04189 16.5444 7.97453 16.5444V16.5444Z" fill="#34A853"/>
    <path d="M5.15001 12.7025C4.93943 12.1126 4.93943 11.4737 5.15001 10.8838V9.65967H3.47913C3.12683 10.3217 2.94336 11.0523 2.94336 11.7931C2.94336 12.534 3.12683 13.2646 3.47913 13.9266L5.15001 12.7025Z" fill="#FBBC04"/>
    <path d="M7.97453 8.92255C8.69207 8.91148 9.3854 9.16749 9.90467 9.63525L11.3408 8.27914C10.4301 7.47146 9.22375 7.02804 7.97453 7.04182C7.04189 7.04186 6.12761 7.28668 5.33378 7.74895C4.53994 8.21122 3.89778 8.87274 3.479 9.65966L5.14989 10.8838C5.54822 9.75799 6.66214 8.92255 7.97453 8.92255Z" fill="#EA4335"/>
</svg>