<svg width="25" height="21" viewBox="0 0 25 21" fill="none" xmlns="http://www.w3.org/2000/svg">
    <path d="M11.9706 4.11469L11.9707 4.11486L11.9709 4.11513L11.971 4.11531L11.9711 4.11543L12.3993 4.82806L12.8275 4.11543L12.8276 4.11531L12.8277 4.11513L12.8279 4.11486L12.828 4.11469L12.8312 4.10936L12.8472 4.08389C12.862 4.06055 12.8851 4.02483 12.9163 3.97849C12.9786 3.88575 13.0732 3.75084 13.1984 3.58781C13.4493 3.26103 13.8205 2.82528 14.2996 2.39062C15.2636 1.51602 16.6215 0.683289 18.2908 0.683289C21.6745 0.683289 23.683 3.4502 23.683 5.69397C23.683 5.7845 23.6836 5.87435 23.6841 5.96395C23.6873 6.51345 23.6904 7.05368 23.5723 7.68525C23.4368 8.4091 23.1372 9.26524 22.4604 10.3348C21.1182 12.4558 18.305 15.3982 12.3993 19.7667C6.49353 15.3982 3.68035 12.4558 2.3382 10.3348C1.66138 9.26524 1.36178 8.4091 1.22632 7.68525C1.10813 7.05368 1.11128 6.51345 1.11449 5.96396C1.11502 5.87435 1.11554 5.7845 1.11554 5.69397C1.11554 3.4502 3.12403 0.683289 6.50781 0.683289C8.17705 0.683289 9.53498 1.51602 10.499 2.39062C10.9781 2.82528 11.3493 3.26103 11.6002 3.58781C11.7254 3.75084 11.82 3.88575 11.8823 3.97849C11.9135 4.02483 11.9366 4.06055 11.9514 4.08389L11.9673 4.10936L11.9706 4.11469Z" fill="white" stroke="#434D56"/>
</svg>
