<svg xmlns="http://www.w3.org/2000/svg" width="22" height="20" viewBox="0 0 22 20" fill="none">
    <path d="M10.3171 18.8487C10.7369 19.2685 11.4157 19.2667 11.8354 18.8469L20.1576 10.4855C20.613 10.03 20.9721 9.51382 21.2382 8.96366L11.0763 7.1792L0.896484 8.96544C1.16442 9.53168 1.5306 10.0622 1.9986 10.5302L10.3171 18.8487Z" fill="#FFDB06"/>
    <path d="M20.1553 2.56348C17.9708 0.378905 14.4161 0.378905 12.2316 2.56348L11.0759 3.76205L9.92016 2.60635C7.73558 0.421774 4.18095 0.421774 1.99638 2.60635C0.279795 4.32293 -0.0863853 6.88619 0.896049 8.96538H21.236C22.2435 6.87905 21.8844 4.29257 20.1553 2.56348Z" fill="#00A6E4"/>
</svg>