<svg xmlns="http://www.w3.org/2000/svg" width="22" height="19" viewBox="0 0 22 19" fill="none">
    <path d="M10.7268 3.78437L10.7268 3.7844L10.7268 3.78442L10.8125 3.92704L10.8982 3.78442L10.8982 3.7844L10.8982 3.78437L10.8984 3.78404L10.8994 3.78249L10.9034 3.77588L10.9202 3.74914C10.9352 3.72552 10.9578 3.69058 10.9878 3.64593C11.0479 3.55661 11.1376 3.42854 11.2559 3.27463C11.4924 2.96665 11.8421 2.55601 12.2945 2.14559C13.2004 1.32369 14.5095 0.510156 16.1407 0.510156C19.4121 0.510156 21.3695 3.18737 21.3695 5.39392C21.3695 5.47281 21.37 5.55216 21.3705 5.63221C21.3736 6.12912 21.3769 6.6529 21.2633 7.25959C21.1319 7.96188 20.843 8.77769 20.2092 9.77935C18.9439 11.7789 16.3063 14.5155 10.8125 18.5587C5.3187 14.5155 2.68112 11.7789 1.41582 9.77935C0.781977 8.77769 0.493106 7.96188 0.361684 7.25959C0.248149 6.65289 0.251405 6.12912 0.254494 5.63221C0.254992 5.55216 0.255485 5.47281 0.255485 5.39392C0.255485 3.18737 2.21286 0.510156 5.48436 0.510156C7.11558 0.510156 8.42463 1.32369 9.33055 2.14559C9.78293 2.55601 10.1326 2.96665 10.3692 3.27463C10.4874 3.42854 10.5772 3.55661 10.6372 3.64593C10.6673 3.69058 10.6898 3.72552 10.7048 3.74914L10.7216 3.77588L10.7256 3.78249L10.7266 3.78404L10.7268 3.78437Z" fill="white" stroke="#434D56" stroke-width="0.2"/>
</svg>