<svg width="27" height="28" viewBox="0 0 27 28" fill="none" xmlns="http://www.w3.org/2000/svg">
<path d="M16.6386 25.5025V18.6844C16.6386 18.383 16.5189 18.0939 16.3058 17.8808C16.0926 17.6677 15.8036 17.548 15.5022 17.548H10.9568C10.6554 17.548 10.3663 17.6677 10.1532 17.8808C9.94013 18.0939 9.8204 18.383 9.8204 18.6844V25.5025C9.8204 25.8039 9.70068 26.093 9.48757 26.3061C9.27446 26.5192 8.98542 26.6389 8.68404 26.6389H1.86586C1.56447 26.6389 1.27544 26.5192 1.06233 26.3061C0.849216 26.093 0.729492 25.8039 0.729492 25.5025V12.3633C0.732037 12.2061 0.766023 12.0509 0.829449 11.907C0.892876 11.7631 0.984461 11.6333 1.09881 11.5253L12.4624 1.19857C12.6719 1.00692 12.9456 0.900635 13.2295 0.900635C13.5134 0.900635 13.7871 1.00692 13.9965 1.19857L25.3602 11.5253C25.4745 11.6333 25.5661 11.7631 25.6295 11.907C25.693 12.0509 25.7269 12.2061 25.7295 12.3633V25.5025C25.7295 25.8039 25.6098 26.093 25.3967 26.3061C25.1836 26.5192 24.8945 26.6389 24.5931 26.6389H17.7749C17.4736 26.6389 17.1845 26.5192 16.9714 26.3061C16.7583 26.093 16.6386 25.8039 16.6386 25.5025Z" stroke="#434D56" stroke-width="1.3" stroke-linecap="round" stroke-linejoin="round"/>
</svg>
