<svg width="22" height="22" viewBox="0 0 22 22" fill="none" xmlns="http://www.w3.org/2000/svg">
    <path d="M21.402 10.7319C21.3211 4.84843 16.4888 0.144538 10.6054 0.220637C4.72196 0.296736 0.0180728 5.1338 0.0941722 11.0172C0.175028 16.9007 5.00734 21.6046 10.8908 21.5285C16.7742 21.4476 21.4828 16.6153 21.402 10.7319ZM10.7481 4.02085C11.5899 4.02085 12.2701 4.70099 12.2701 5.54283C12.2701 6.38468 11.5899 7.06482 10.7481 7.06482C9.90623 7.06482 9.22609 6.38468 9.22609 5.54283C9.22609 4.70099 9.90623 4.02085 10.7481 4.02085ZM12.8408 17.4857H8.65535V16.9625H9.70172V9.35256H8.65535V8.78181H11.7944V16.9625H12.8408V17.4857Z" fill="#D2E4F0"></path>
</svg>