<svg width="177" height="38" viewBox="0 0 177 38" fill="none" xmlns="http://www.w3.org/2000/svg">
<path d="M38.9652 23.1L35.8502 23.065C34.7069 23.065 33.8319 23.0883 33.2252 23.135C32.8519 26.495 32.6652 29.2017 32.6652 31.255C32.6652 33.285 32.7352 34.7083 32.8752 35.525C32.2686 35.5717 31.9419 35.595 31.8952 35.595C30.8219 35.595 30.0169 35.3617 29.4802 34.895C28.9669 34.4283 28.7102 33.635 28.7102 32.515C28.7102 31.395 29.0486 28.4433 29.7252 23.66C29.0719 23.8233 28.5119 23.9983 28.0452 24.185C27.9986 23.765 27.9752 23.4267 27.9752 23.17C27.9752 21.7467 28.6986 20.86 30.1452 20.51C30.6819 16.59 30.9736 13.475 31.0202 11.165C30.1102 11.165 29.4919 11.0483 29.1652 10.815C28.8386 10.5583 28.6752 10.08 28.6752 9.38C28.6752 8.65667 28.7686 8.03833 28.9552 7.525C31.3586 7.85167 33.9719 8.015 36.7952 8.015C39.6186 8.015 42.3136 7.75833 44.8802 7.245C44.5769 9.135 43.2586 10.2667 40.9252 10.64C39.5486 10.8733 37.4602 11.0367 34.6602 11.13C34.6602 12.2267 34.2986 15.3067 33.5752 20.37C35.0219 20.4167 36.0719 20.44 36.7252 20.44C38.7786 20.44 40.2369 20.1017 41.1002 19.425C41.1469 19.7983 41.1702 20.1017 41.1702 20.335C41.1702 22.1783 40.4352 23.1 38.9652 23.1ZM46.0538 32.445C46.0305 32.0717 46.0188 31.4767 46.0188 30.66C46.0188 29.82 46.4038 26.2733 47.1738 20.02C47.9672 13.7667 48.3638 9.47333 48.3638 7.14C48.3638 4.80667 48.2238 3.29 47.9438 2.59C49.2505 3.08 50.1722 3.80333 50.7088 4.76C51.2455 5.71667 51.5138 6.87167 51.5138 8.225C51.5138 9.57833 51.1755 13.0783 50.4988 18.725C49.8222 24.3717 49.4838 28.9217 49.4838 32.375C49.4838 33.1217 49.5305 34.1717 49.6238 35.525C48.3405 35.4317 47.4305 35.1283 46.8938 34.615C46.4505 34.195 46.1705 33.4717 46.0538 32.445ZM69.5328 23.52C69.5328 21.2333 69.2412 19.6 68.6578 18.62C68.0978 17.6167 67.2812 17.115 66.2078 17.115C65.1578 17.115 64.0962 17.64 63.0228 18.69C61.9495 19.7167 61.0978 21 60.4678 22.54C59.8612 24.0567 59.5578 25.6433 59.5578 27.3C59.5578 28.9333 59.8728 30.3567 60.5028 31.57C61.1328 32.76 62.0895 33.355 63.3728 33.355C65.1928 33.355 66.6745 32.2817 67.8178 30.135C68.9612 27.9883 69.5328 25.7833 69.5328 23.52ZM59.3828 22.155C60.2695 19.635 61.4595 17.8033 62.9528 16.66C64.4695 15.4933 65.9978 14.91 67.5378 14.91C69.1012 14.91 70.3962 15.5983 71.4228 16.975C72.4495 18.3283 72.9628 20.1717 72.9628 22.505C72.9628 25.0717 72.4728 27.4517 71.4928 29.645C70.3962 32.0717 68.8095 33.7633 66.7328 34.72C65.6128 35.2567 64.3762 35.525 63.0228 35.525C61.1328 35.525 59.4762 34.7433 58.0528 33.18C56.6295 31.5933 55.9178 29.3417 55.9178 26.425C55.9178 23.485 56.5478 20.9417 57.8078 18.795C59.0678 16.6483 60.7828 15.155 62.9528 14.315C63.4195 14.315 63.6528 14.5483 63.6528 15.015C61.3428 16.5317 59.9195 18.9117 59.3828 22.155ZM82.4894 23.625C83.3294 20.5917 84.3327 18.3633 85.4994 16.94C86.6894 15.4933 87.7861 14.77 88.7894 14.77C89.8161 14.77 90.5861 15.155 91.0994 15.925C91.6127 16.6717 91.8694 17.6283 91.8694 18.795C91.8694 19.9617 91.5661 20.9767 90.9594 21.84C90.3527 22.68 89.4661 23.1 88.2994 23.1C87.9261 23.1 87.6344 23.0767 87.4244 23.03C88.2177 21.8867 88.6144 20.72 88.6144 19.53C88.6144 18.69 88.2761 18.27 87.5994 18.27C87.0627 18.27 86.4911 18.585 85.8844 19.215C85.2777 19.845 84.6944 20.72 84.1344 21.84C83.5744 22.96 83.1077 24.4183 82.7344 26.215C82.3611 28.0117 82.1744 29.9483 82.1744 32.025C82.1744 32.2583 82.2327 33.25 82.3494 35C81.7427 35.0467 81.3927 35.07 81.2994 35.07C79.2461 35.07 78.2194 34.0667 78.2194 32.06C78.2194 31.5933 78.4644 29.7967 78.9544 26.67C79.4444 23.5433 79.6894 21.0583 79.6894 19.215C79.6894 17.3483 79.4911 15.6333 79.0944 14.07C80.4711 14.6067 81.4277 15.3767 81.9644 16.38C82.5244 17.36 82.8044 18.515 82.8044 19.845C82.8044 21.1517 82.6994 22.4117 82.4894 23.625ZM99.1806 21.315C98.5039 22.4817 97.9789 23.6833 97.6056 24.92C97.2556 26.1333 97.0806 27.3 97.0806 28.42C97.0806 29.54 97.3256 30.4967 97.8156 31.29C98.3289 32.06 99.0522 32.445 99.9856 32.445C101.292 32.445 102.517 31.7333 103.661 30.31C104.804 28.8633 105.679 27.125 106.286 25.095C106.916 23.0417 107.231 21.1517 107.231 19.425C107.231 17.675 107.161 16.24 107.021 15.12C107.581 15.0733 107.931 15.05 108.071 15.05C110.054 15.05 111.046 16.065 111.046 18.095C111.046 18.5383 110.766 20.3467 110.206 23.52C109.646 26.67 109.366 29.2017 109.366 31.115C109.366 33.005 109.727 34.685 110.451 36.155C108.981 35.8517 107.907 35.21 107.231 34.23C106.577 33.2267 106.251 31.7917 106.251 29.925C106.251 29.5983 106.297 28.9683 106.391 28.035C105.761 30.2517 104.652 32.0367 103.066 33.39C101.479 34.7433 99.9156 35.42 98.3756 35.42C96.8589 35.42 95.6339 34.8483 94.7006 33.705C93.7672 32.5383 93.3006 30.94 93.3006 28.91C93.3006 26.8567 93.6739 24.8617 94.4206 22.925C95.1906 20.965 96.3339 19.2733 97.8506 17.85C99.3906 16.4267 101.106 15.715 102.996 15.715C103.812 15.715 104.711 15.8783 105.691 16.205C104.314 16.555 103.054 17.1967 101.911 18.13C100.767 19.0633 99.8572 20.125 99.1806 21.315ZM117.092 15.19C119.332 15.5167 121.409 15.68 123.322 15.68C125.259 15.68 126.857 15.6217 128.117 15.505C128.467 14.7817 128.724 14.1167 128.887 13.51C129.937 14.3967 130.462 15.365 130.462 16.415C130.462 17.465 129.984 18.7017 129.027 20.125C128.094 21.5483 126.589 23.485 124.512 25.935C122.436 28.3617 120.872 30.2867 119.822 31.71C122.622 31.78 124.524 31.815 125.527 31.815C126.554 31.815 127.791 31.71 129.237 31.5C129.354 32.0833 129.412 32.69 129.412 33.32C129.412 34.6033 128.526 35.245 126.752 35.245C126.332 35.245 125.107 35.1517 123.077 34.965C121.071 34.7783 119.332 34.685 117.862 34.685C116.392 34.685 114.934 34.8833 113.487 35.28C113.814 33.53 114.596 32.4333 115.832 31.99C120.452 27.2067 124.081 22.5983 126.717 18.165C125.504 18.2117 124.011 18.3517 122.237 18.585C120.487 18.795 119.437 18.9 119.087 18.9C117.571 18.9 116.812 18.1417 116.812 16.625C116.812 16.1817 116.906 15.7033 117.092 15.19ZM146.881 23.52C146.881 21.2333 146.59 19.6 146.006 18.62C145.446 17.6167 144.63 17.115 143.556 17.115C142.506 17.115 141.445 17.64 140.371 18.69C139.298 19.7167 138.446 21 137.816 22.54C137.21 24.0567 136.906 25.6433 136.906 27.3C136.906 28.9333 137.221 30.3567 137.851 31.57C138.481 32.76 139.438 33.355 140.721 33.355C142.541 33.355 144.023 32.2817 145.166 30.135C146.31 27.9883 146.881 25.7833 146.881 23.52ZM136.731 22.155C137.618 19.635 138.808 17.8033 140.301 16.66C141.818 15.4933 143.346 14.91 144.886 14.91C146.45 14.91 147.745 15.5983 148.771 16.975C149.798 18.3283 150.311 20.1717 150.311 22.505C150.311 25.0717 149.821 27.4517 148.841 29.645C147.745 32.0717 146.158 33.7633 144.081 34.72C142.961 35.2567 141.725 35.525 140.371 35.525C138.481 35.525 136.825 34.7433 135.401 33.18C133.978 31.5933 133.266 29.3417 133.266 26.425C133.266 23.485 133.896 20.9417 135.156 18.795C136.416 16.6483 138.131 15.155 140.301 14.315C140.768 14.315 141.001 14.5483 141.001 15.015C138.691 16.5317 137.268 18.9117 136.731 22.155ZM171.598 19.775C171.598 20.8483 171.365 22.75 170.898 25.48C170.455 28.1867 170.233 30.1583 170.233 31.395C170.233 32.6317 170.385 33.53 170.688 34.09C170.991 34.6267 171.505 35.0933 172.228 35.49C171.925 35.5133 171.493 35.525 170.933 35.525C169.346 35.525 168.215 35.2333 167.538 34.65C166.885 34.0433 166.558 32.97 166.558 31.43C166.558 30.5667 166.791 28.8283 167.258 26.215C167.725 23.5783 167.958 21.6417 167.958 20.405C167.958 18.865 167.491 18.095 166.558 18.095C165.065 18.095 163.513 19.4133 161.903 22.05C160.316 24.6867 159.523 27.86 159.523 31.57C159.523 33.04 159.593 34.1833 159.733 35C159.126 35.0467 158.765 35.07 158.648 35.07C156.595 35.07 155.568 34.0667 155.568 32.06C155.568 31.5933 155.813 29.7967 156.303 26.67C156.793 23.5433 157.038 21.0583 157.038 19.215C157.038 17.3483 156.84 15.6333 156.443 14.07C157.82 14.6067 158.776 15.3767 159.313 16.38C159.873 17.36 160.153 18.4917 160.153 19.775C160.153 21.035 160.013 22.505 159.733 24.185C160.503 21.5483 161.705 19.3317 163.338 17.535C164.995 15.715 166.535 14.805 167.958 14.805C170.385 14.805 171.598 16.4617 171.598 19.775Z" fill="#65BE00"/>
<path d="M2 22.625C8.99988 23 11.0001 34.3516 11.0001 34.9997C6.50006 34.9991 3.89989 30.2499 2.99988 27.5C2.24892 25.3693 2.05362 24.7677 2 22.625Z" stroke="#65BE00" stroke-width="2"/>
<path d="M11 34.9998C11.9 33.6281 13.7999 22.3142 21 23L19.2501 28.125" stroke="#65BE00" stroke-width="2"/>
<path d="M11.2 18.5L11.2668 34.9996" stroke="#65BE00" stroke-width="2"/>
<path d="M19.0005 30.4995C19.0005 31.0518 18.5528 31.4995 18.0005 31.4995C17.4482 31.4995 17.0005 31.0518 17.0005 30.4995C17.0005 29.9472 17.4482 29.4995 18.0005 29.4995C18.5528 29.4995 19.0005 29.9472 19.0005 30.4995Z" fill="#65BE00"/>
<path d="M11.3544 35.0002C12.8544 35.0002 15.75 33.875 16.5 32.5" stroke="#65BE00" stroke-width="2"/>
<path d="M11.5838 9.33326L6.53588 4.47569L6.05192 3.92529C5.55087 8.7377 2.73961 10.4728 3.69846 13.6872C4.25432 15.5506 6.24297 17.256 8.1985 17.8121" stroke="#FF9186" stroke-width="2"/>
<path d="M8.54103 5.92161L10.1158 3.9608L11.6905 2L15.1263 5.66017M15.1263 5.66017C12.015 8.7626 5.86248 16.3899 8.19881 17.8122C11.9013 18.5311 18.5011 18.4997 19.2511 13.6873C19.6325 11.2399 17.0011 6.8124 17.1992 4.06246L15.1263 5.66017Z" stroke="#FF9186" stroke-width="2"/>
</svg>
