<svg width="12" height="16" viewBox="0 0 12 16" fill="none" xmlns="http://www.w3.org/2000/svg">
    <path d="M5.88589 0.868408C2.91365 0.868408 0.494142 3.28792 0.494141 6.26015C0.494139 11.49 5.58192 15.4659 5.58192 15.4659C5.66877 15.5352 5.77659 15.573 5.8877 15.573C5.99881 15.573 6.10662 15.5352 6.19347 15.4659C6.19347 15.4659 11.2813 11.49 11.2812 6.26015C11.2812 3.28792 8.85812 0.868408 5.88589 0.868408ZM5.88589 1.84905C8.32827 1.84905 10.3006 3.81777 10.3006 6.26015C10.3006 10.5386 6.42642 13.9189 5.8895 14.3767C5.35515 13.9212 1.47479 10.5403 1.47479 6.26015C1.47479 3.81777 3.4435 1.84905 5.88589 1.84905Z" fill="#434D56"></path>
    <path d="M5.88731 3.8103C4.53946 3.8103 3.4375 4.91226 3.4375 6.26011C3.43749 7.60797 4.53945 8.71353 5.88731 8.71353C7.23516 8.71353 8.34074 7.60797 8.34073 6.26011C8.34073 4.91226 7.23515 3.8103 5.88731 3.8103ZM5.88731 4.79095C6.7053 4.79095 7.36008 5.44211 7.36009 6.26011C7.36009 7.07811 6.70531 7.73289 5.88731 7.73289C5.0693 7.73289 4.41814 7.07811 4.41815 6.26011C4.41815 5.44211 5.06931 4.79095 5.88731 4.79095Z" fill="#434D56"></path>
</svg>