<svg xmlns="http://www.w3.org/2000/svg" width="35" height="23" viewBox="0 0 35 23" fill="none">
    <path d="M2.29561 0.895508H32.6336C33.5911 0.895508 34.3672 1.67168 34.3672 2.62911V20.8319C34.3672 21.7894 33.5911 22.5655 32.6336 22.5655H2.29561C1.33819 22.5655 0.562012 21.7894 0.562012 20.8319V2.62911C0.562012 1.67168 1.33819 0.895508 2.29561 0.895508Z" fill="#16366F"/>
    <path d="M20.0224 11.7305C20.0224 16.0274 16.5391 19.51 12.2424 19.51C7.94569 19.51 4.46289 16.0272 4.46289 11.7305C4.46289 7.43409 7.94578 3.95099 12.2424 3.95099C16.539 3.95099 20.0224 7.43422 20.0224 11.7305Z" fill="#D9222A"/>
    <path d="M22.6868 3.95074C20.6767 3.95074 18.845 4.71335 17.4643 5.96458C17.183 6.21981 16.9205 6.49493 16.6788 6.78786H18.2505C18.4658 7.04951 18.6638 7.32476 18.8436 7.61189H16.0857C15.9198 7.87717 15.7702 8.15229 15.6375 8.43569H19.2916C19.417 8.70375 19.527 8.97874 19.621 9.25933H15.3081C15.2175 9.52955 15.1421 9.80459 15.082 10.0832H19.8468C19.9634 10.6245 20.0221 11.1767 20.022 11.7304C20.022 12.5944 19.8809 13.4256 19.6209 14.2017H15.308C15.4018 14.4825 15.5117 14.7575 15.6372 15.0256H19.2915C19.1587 15.309 19.0089 15.5842 18.8431 15.8496H16.0856C16.2656 16.1369 16.4639 16.4121 16.6787 16.6729H18.2501C18.0087 16.9664 17.7461 17.2418 17.4643 17.4969C18.8452 18.748 20.6766 19.5102 22.6868 19.5102C26.9834 19.5101 30.4668 16.0273 30.4668 11.7307C30.4668 7.43437 26.9835 3.95113 22.6868 3.95113" fill="#EE9F2D"/>
    <path d="M8.58899 13.7778H7.74425L8.22836 10.7446L7.14811 13.7778H6.57247L6.50131 10.7619L5.9928 13.7778H5.20215L5.86256 9.83209H7.07695L7.1111 12.2748L7.9304 9.83209H9.24217L8.58899 13.7778" fill="white"/>
    <path d="M10.6684 12.3486C10.5799 12.3383 10.5407 12.3356 10.48 12.3356C10.0013 12.3356 9.75912 12.4997 9.75912 12.8239C9.75912 13.0234 9.87744 13.151 10.0616 13.151C10.406 13.1509 10.6539 12.8234 10.6684 12.3486V12.3486ZM11.2829 13.7781H10.5831L10.5991 13.446C10.3858 13.7084 10.1006 13.8339 9.71401 13.8339C9.25603 13.8339 8.94238 13.4763 8.94238 12.9571C8.94238 12.1756 9.48808 11.7201 10.4253 11.7201C10.521 11.7201 10.6438 11.7288 10.7693 11.7449C10.7955 11.639 10.8024 11.5938 10.8024 11.5365C10.8024 11.3238 10.6554 11.2448 10.2608 11.2448C9.84745 11.2401 9.50689 11.3433 9.36672 11.3888C9.37557 11.3357 9.48374 10.6677 9.48374 10.6677C9.90453 10.5438 10.1824 10.4974 10.4945 10.4974C11.2199 10.4974 11.6041 10.8232 11.6035 11.4381C11.6047 11.6036 11.5772 11.807 11.5348 12.0741C11.4617 12.5389 11.3042 13.5357 11.2829 13.7781V13.7781ZM22.6111 9.93852L22.4728 10.7952C22.1716 10.6437 21.9527 10.5819 21.7184 10.5819C21.0877 10.5819 20.6457 11.1912 20.6457 12.0601C20.6457 12.6591 20.9429 13.0215 21.4337 13.0215C21.6418 13.0215 21.8713 12.9568 22.1512 12.8188L22.003 13.7181C21.6916 13.803 21.4909 13.8339 21.2564 13.8339C20.3473 13.8339 19.7807 13.1801 19.7807 12.1302C19.7807 10.7195 20.5633 9.73352 21.6828 9.73352C22.0515 9.73356 22.4872 9.88993 22.6111 9.93852V9.93852ZM23.9738 12.3486C23.8854 12.3383 23.8463 12.3356 23.7855 12.3356C23.3069 12.3356 23.0645 12.4997 23.0645 12.8239C23.0645 13.0234 23.1828 13.151 23.3672 13.151C23.7112 13.1509 23.9593 12.8234 23.9738 12.3486ZM24.5883 13.7781H23.8884L23.9044 13.446C23.691 13.7084 23.406 13.8339 23.0194 13.8339C22.5616 13.8339 22.2478 13.4763 22.2478 12.9571C22.2478 12.1756 22.7937 11.7201 23.7305 11.7201C23.8265 11.7201 23.9491 11.7288 24.0747 11.7449C24.1008 11.639 24.1078 11.5938 24.1078 11.5365C24.1078 11.3238 23.9608 11.2448 23.5662 11.2448C23.153 11.2401 22.8123 11.3433 22.6721 11.3888C22.681 11.3357 22.7893 10.6677 22.7893 10.6677C23.2101 10.5438 23.4878 10.4974 23.7998 10.4974C24.5254 10.4974 24.9095 10.8232 24.9086 11.4381C24.9101 11.6036 24.8828 11.807 24.8402 12.0741C24.7673 12.5389 24.6094 13.5357 24.5883 13.7781V13.7781ZM15.0366 13.7295C14.8053 13.8023 14.6251 13.8339 14.4299 13.8339C13.9981 13.8339 13.7624 13.5857 13.7624 13.1289C13.7565 12.9867 13.8247 12.614 13.8784 12.2735C13.9269 11.9733 14.2444 10.0834 14.2444 10.0834H15.0838L14.9859 10.5693H15.4168L15.3021 11.3402H14.8698C14.7723 11.9509 14.633 12.7106 14.6316 12.8116C14.6316 12.9776 14.7201 13.0492 14.9207 13.0492C15.0169 13.0492 15.0914 13.0398 15.1484 13.0192L15.0366 13.7295V13.7295ZM17.6107 13.7039C17.3225 13.792 17.0438 13.8344 16.7491 13.8339C15.8093 13.833 15.3194 13.3421 15.3194 12.4022C15.3194 11.3048 15.9427 10.4974 16.7886 10.4974C17.4808 10.4974 17.9229 10.9494 17.9229 11.6589C17.9229 11.8944 17.8925 12.1241 17.8196 12.4482H16.1478C16.0912 12.9138 16.3891 13.1079 16.8775 13.1079C17.1778 13.1079 17.4491 13.0458 17.7502 12.9053L17.6107 13.7039V13.7039ZM17.1386 11.8007C17.1437 11.734 17.2279 11.2279 16.748 11.2279C16.4808 11.2279 16.2895 11.4323 16.2117 11.8007H17.1386ZM11.7896 11.5838C11.7896 11.9897 11.9865 12.2693 12.4329 12.4799C12.7748 12.6406 12.8278 12.6884 12.8278 12.834C12.8278 13.0341 12.6768 13.1244 12.3429 13.1244C12.0908 13.1244 11.8564 13.085 11.5859 12.9978C11.5859 12.9978 11.4752 13.7051 11.4702 13.7389C11.6617 13.7808 11.8331 13.8191 12.3489 13.8339C13.2402 13.8339 13.6516 13.4946 13.6516 12.7614C13.6516 12.3202 13.4795 12.0614 13.0562 11.867C12.7023 11.7041 12.6613 11.6683 12.6613 11.5183C12.6613 11.3449 12.8019 11.2557 13.0748 11.2557C13.2404 11.2557 13.4669 11.2739 13.6817 11.3045L13.8018 10.5599C13.5834 10.5252 13.2518 10.4974 13.0587 10.4974C12.1137 10.4974 11.7869 10.9906 11.7896 11.5838V11.5838ZM29.0584 13.7781H28.2594L28.2991 13.4793C28.0674 13.7271 27.8299 13.8339 27.5204 13.8339C26.9064 13.8339 26.5006 13.3046 26.5006 12.5023C26.5006 11.4348 27.13 10.5349 27.8749 10.5349C28.2024 10.5349 28.4504 10.6688 28.6812 10.9725L28.8686 9.83229H29.7017L29.0584 13.7781V13.7781ZM27.8126 13.0366C28.2059 13.0366 28.4822 12.5909 28.4822 11.9551C28.4822 11.5475 28.3249 11.3263 28.0347 11.3263C27.6517 11.3263 27.3796 11.7734 27.3796 12.4044C27.3796 12.8242 27.5251 13.0366 27.8126 13.0366ZM25.349 10.5693C25.2433 11.5625 25.0555 12.5686 24.9086 13.5625L24.87 13.7781H25.7147C26.0169 11.8159 26.09 11.4327 26.5637 11.4807C26.6392 11.0791 26.7796 10.7273 26.8843 10.5498C26.5306 10.4761 26.333 10.676 26.0744 11.0558C26.0948 10.8917 26.1322 10.7322 26.1248 10.5693H25.349V10.5693ZM18.3964 10.5693C18.2904 11.5625 18.1026 12.5686 17.9558 13.5625L17.9174 13.7781H18.7625C19.0642 11.8159 19.1372 11.4327 19.6106 11.4807C19.6864 11.0791 19.827 10.7273 19.9313 10.5498C19.5779 10.4761 19.3802 10.676 19.1218 11.0558C19.1422 10.8917 19.1792 10.7322 19.1722 10.5693H18.3964V10.5693ZM29.4295 13.5269C29.4295 13.3876 29.542 13.2755 29.6807 13.2755C29.8192 13.2754 29.9317 13.3876 29.9318 13.5262V13.5269C29.9318 13.6656 29.8194 13.778 29.6807 13.7781C29.542 13.778 29.4296 13.6656 29.4295 13.5269ZM29.6807 13.7178C29.7861 13.7178 29.8715 13.6324 29.8715 13.527V13.5269C29.8716 13.4215 29.7862 13.336 29.6809 13.3359H29.6807C29.5752 13.3359 29.4896 13.4214 29.4896 13.5269C29.4897 13.6323 29.5752 13.7178 29.6807 13.7178ZM29.6467 13.6367H29.5952V13.4164H29.6886C29.7079 13.4164 29.7279 13.4167 29.7447 13.4274C29.7628 13.4397 29.7731 13.4606 29.7731 13.4826C29.7731 13.5075 29.7584 13.5308 29.7346 13.5397L29.7754 13.6366H29.7182L29.6844 13.5496H29.6467V13.6366V13.6367V13.6367ZM29.6467 13.5119H29.6751C29.6857 13.5119 29.6973 13.5127 29.7066 13.5076C29.7151 13.5021 29.7194 13.4919 29.7194 13.4821C29.719 13.473 29.7144 13.4646 29.707 13.4594C29.6982 13.4543 29.6835 13.4557 29.6739 13.4557H29.6467V13.5119H29.6467V13.5119Z" fill="white"/>
</svg>