<svg width="16" height="26" viewBox="0 0 16 26" fill="none" xmlns="http://www.w3.org/2000/svg">
<path d="M1.63346 0.268696C1.75535 0.268641 1.87607 0.292599 1.9887 0.339203C2.10134 0.385807 2.20369 0.454144 2.28991 0.54031L13.7293 11.9803C13.9032 12.1543 14.001 12.3903 14.001 12.6364C14.001 12.8825 13.9032 13.1185 13.7293 13.2926L2.28991 24.7325C2.20374 24.8187 2.10144 24.8871 1.98885 24.9338C1.87625 24.9805 1.75556 25.0045 1.63368 25.0045C1.51179 25.0045 1.39109 24.9806 1.27848 24.9339C1.16586 24.8873 1.06352 24.819 0.977315 24.7328C0.891109 24.6467 0.82272 24.5444 0.776049 24.4318C0.729379 24.3192 0.705342 24.1985 0.705313 24.0766C0.705284 23.9547 0.729264 23.834 0.775881 23.7214C0.822498 23.6088 0.890841 23.5064 0.977007 23.4202L11.7605 12.6367L0.977007 1.85321C0.84713 1.72342 0.758672 1.55802 0.722828 1.37793C0.686983 1.19785 0.705361 1.01118 0.77564 0.841549C0.845917 0.671915 0.964936 0.526939 1.11763 0.424969C1.27033 0.322996 1.44984 0.268612 1.63346 0.268696Z" fill="white"/>
<path d="M3.32096 0.268696C3.44285 0.268641 3.56357 0.292599 3.6762 0.339203C3.78884 0.385807 3.89119 0.454144 3.97741 0.54031L15.4168 11.9803C15.5907 12.1543 15.6885 12.3903 15.6885 12.6364C15.6885 12.8825 15.5907 13.1185 15.4168 13.2926L3.97741 24.7325C3.89124 24.8187 3.78894 24.8871 3.67635 24.9338C3.56375 24.9805 3.44306 25.0045 3.32118 25.0045C3.19929 25.0045 3.07859 24.9806 2.96598 24.9339C2.85336 24.8873 2.75102 24.819 2.66481 24.7328C2.57861 24.6467 2.51022 24.5444 2.46355 24.4318C2.41688 24.3192 2.39284 24.1985 2.39281 24.0766C2.39278 23.9547 2.41676 23.834 2.46338 23.7214C2.51 23.6088 2.57834 23.5064 2.66451 23.4202L13.448 12.6367L2.66451 1.85321C2.53463 1.72342 2.44617 1.55802 2.41033 1.37793C2.37448 1.19785 2.39286 1.01118 2.46314 0.841549C2.53342 0.671915 2.65244 0.526939 2.80513 0.424969C2.95783 0.322996 3.13734 0.268612 3.32096 0.268696Z" fill="#434D56"/>
</svg>
