<svg width="16" height="26" viewBox="0 0 16 26" fill="none" xmlns="http://www.w3.org/2000/svg">
<path d="M14.4466 25.5998C14.3247 25.5999 14.204 25.5759 14.0914 25.5293C13.9787 25.4827 13.8764 25.4144 13.7902 25.3282L2.35083 13.8883C2.17684 13.7142 2.0791 13.4782 2.0791 13.2321C2.0791 12.986 2.17684 12.75 2.35083 12.576L13.7902 1.13602C13.8763 1.04981 13.9786 0.981418 14.0912 0.934748C14.2038 0.888078 14.3245 0.864042 14.4464 0.864014C14.5683 0.863985 14.689 0.887964 14.8016 0.934581C14.9142 0.981198 15.0166 1.04954 15.1028 1.13571C15.189 1.22187 15.2574 1.32417 15.304 1.43677C15.3507 1.54937 15.3747 1.67005 15.3748 1.79194C15.3748 1.91383 15.3508 2.03452 15.3042 2.14714C15.2576 2.25976 15.1892 2.36209 15.1031 2.4483L4.31956 13.2318L15.1031 24.0153C15.2329 24.1451 15.3214 24.3105 15.3573 24.4906C15.3931 24.6707 15.3747 24.8573 15.3044 25.027C15.2342 25.1966 15.1151 25.3416 14.9624 25.4436C14.8097 25.5455 14.6302 25.5999 14.4466 25.5998Z" fill="white"/>
<path d="M12.7591 25.5998C12.6372 25.5999 12.5165 25.5759 12.4039 25.5293C12.2912 25.4827 12.1889 25.4144 12.1027 25.3282L0.663327 13.8883C0.489341 13.7142 0.391602 13.4782 0.391602 13.2321C0.391602 12.986 0.489341 12.75 0.663327 12.576L12.1027 1.13602C12.1888 1.04981 12.2911 0.981418 12.4037 0.934748C12.5163 0.888078 12.637 0.864042 12.7589 0.864014C12.8808 0.863985 13.0015 0.887964 13.1141 0.934581C13.2267 0.981198 13.3291 1.04954 13.4153 1.13571C13.5015 1.22187 13.5699 1.32417 13.6165 1.43677C13.6632 1.54937 13.6872 1.67005 13.6873 1.79194C13.6873 1.91383 13.6633 2.03452 13.6167 2.14714C13.5701 2.25976 13.5017 2.36209 13.4156 2.4483L2.63206 13.2318L13.4156 24.0153C13.5454 24.1451 13.6339 24.3105 13.6698 24.4906C13.7056 24.6707 13.6872 24.8573 13.6169 25.027C13.5467 25.1966 13.4276 25.3416 13.2749 25.4436C13.1222 25.5455 12.9427 25.5999 12.7591 25.5998Z" fill="#434D56"/>
</svg>
