<svg width="18" height="18" viewBox="0 0 18 18" fill="none" xmlns="http://www.w3.org/2000/svg">
    <path d="M17.4129 16.6472L13.4289 12.6632H13.386C14.614 11.2153 15.2346 9.34865 15.1179 7.45375C15.0012 5.55885 14.1563 3.78246 12.76 2.49617C11.3637 1.20989 9.52403 0.513352 7.62594 0.552267C5.72785 0.591183 3.91832 1.36254 2.57588 2.70497C1.23345 4.04741 0.462094 5.85694 0.423178 7.75503C0.384262 9.65312 1.0808 11.4927 2.36708 12.8891C3.65337 14.2854 5.42976 15.1303 7.32466 15.247C9.21957 15.3636 11.0862 14.7431 12.5341 13.5151C12.5341 13.5151 12.5341 13.5458 12.5341 13.558L16.5181 17.542C16.5751 17.5995 16.6428 17.6451 16.7175 17.6762C16.7922 17.7073 16.8723 17.7233 16.9532 17.7233C17.0342 17.7233 17.1143 17.7073 17.189 17.6762C17.2637 17.6451 17.3314 17.5995 17.3884 17.542C17.4513 17.4864 17.502 17.4184 17.5375 17.3424C17.573 17.2663 17.5925 17.1838 17.5948 17.0999C17.5971 17.016 17.5822 16.9325 17.5509 16.8547C17.5196 16.7768 17.4726 16.7062 17.4129 16.6472ZM7.78392 14.0177C6.57167 14.0177 5.38665 13.6582 4.3787 12.9848C3.37076 12.3113 2.58516 11.354 2.12125 10.234C1.65735 9.11408 1.53597 7.88169 1.77246 6.69274C2.00896 5.50379 2.59271 4.41166 3.4499 3.55447C4.30709 2.69729 5.39921 2.11353 6.58817 1.87704C7.77712 1.64054 9.0095 1.76192 10.1295 2.22582C11.2494 2.68973 12.2067 3.47533 12.8802 4.48328C13.5537 5.49122 13.9131 6.67625 13.9131 7.88849C13.9131 8.69339 13.7546 9.49041 13.4466 10.234C13.1386 10.9777 12.6871 11.6534 12.1179 12.2225C11.5488 12.7917 10.8731 13.2431 10.1295 13.5512C9.38584 13.8592 8.58882 14.0177 7.78392 14.0177Z" fill="#434D56"/>
</svg>