<svg width="21" height="21" viewBox="0 0 21 21" fill="none" xmlns="http://www.w3.org/2000/svg">
    <path d="M20.5287 19.4338L15.253 14.1581C15.4775 13.8775 15.702 13.5969 15.8704 13.3163C16.8245 11.9132 17.3296 10.2856 17.3296 8.60187C17.3296 3.94359 13.5693 0.183289 8.91101 0.183289C4.25273 0.183289 0.492432 3.94359 0.492432 8.60187C0.492432 13.2601 4.25273 17.0204 8.91101 17.0204C10.9876 17.0204 12.9519 16.2908 14.4673 14.9439L19.7429 20.2195C19.8552 20.3318 20.0235 20.3879 20.1358 20.3879C20.248 20.3879 20.4164 20.3318 20.5287 20.2195C20.7531 19.995 20.7531 19.6583 20.5287 19.4338ZM8.91101 15.898C4.87009 15.898 1.61491 12.6428 1.61491 8.60187C1.61491 4.56095 4.87009 1.30577 8.91101 1.30577C12.9519 1.30577 16.2071 4.56095 16.2071 8.60187C16.2071 10.0611 15.7581 11.4642 14.9724 12.6989C13.6254 14.7194 11.3243 15.898 8.91101 15.898Z" fill="#434D56"/>
</svg>