<svg width="22" height="24" viewBox="0 0 22 24" fill="none" xmlns="http://www.w3.org/2000/svg"><path d="M17.9187 16.2934H17.9187C18.6398 16.2934 19.3428 16.5191 19.9291 16.9389C20.5154 17.3587 20.9555 17.9516 21.1877 18.6343C21.4199 19.3169 21.4325 20.0552 21.2238 20.7454C21.0151 21.4356 20.5955 22.0432 20.0239 22.4828C19.4523 22.9224 18.7574 23.172 18.0367 23.1966C17.3161 23.2212 16.6058 23.0196 16.0056 22.6199C15.4053 22.2203 14.9453 21.6428 14.69 20.9684C14.4347 20.294 14.397 19.5566 14.5821 18.8597L14.602 18.7848L14.5345 18.7469L6.31906 14.1246L6.25151 14.0866L6.19786 14.1425C5.72094 14.6398 5.10615 14.983 4.43257 15.128C3.759 15.273 3.05744 15.2131 2.41817 14.9561C1.7789 14.6991 1.23114 14.2567 0.845365 13.6858C0.45959 13.1149 0.253442 12.4417 0.253442 11.7527C0.253442 11.0637 0.45959 10.3904 0.845365 9.81955C1.23114 9.24867 1.7789 8.80627 2.41817 8.54926C3.05744 8.29225 3.759 8.23239 4.43257 8.37738C5.10615 8.52236 5.72094 8.86556 6.19786 9.36283L6.25151 9.41877L6.31906 9.38076L14.5345 4.75848L14.602 4.72048L14.5821 4.64559C14.3665 3.83641 14.4534 2.97641 14.8264 2.22669C15.1995 1.47697 15.8331 0.888987 16.6085 0.572882C17.3839 0.256777 18.248 0.234244 19.0389 0.509506C19.8297 0.784767 20.4931 1.33894 20.9047 2.06819C21.3163 2.79745 21.4479 3.65176 21.2748 4.47107C21.1017 5.29038 20.6359 6.01848 19.9645 6.51897C19.2931 7.01945 18.4623 7.25798 17.6277 7.18987C16.7931 7.12176 16.0119 6.75168 15.4306 6.14896L15.3769 6.09333L15.3096 6.13123L7.09416 10.7535L7.02662 10.7915L7.04656 10.8664C7.20121 11.4471 7.20121 12.0582 7.04656 12.639L7.02662 12.7139L7.09416 12.7519L15.3096 17.3741L15.3772 17.4122L15.4309 17.3561C15.7522 17.02 16.1383 16.7526 16.5659 16.57C16.9935 16.3873 17.4537 16.2933 17.9187 16.2934Z" fill="white" stroke="#434D56" stroke-width="0.2"></path></svg>