<svg width="26" height="26" viewBox="0 0 26 26" fill="none" xmlns="http://www.w3.org/2000/svg">
    <path d="M22.291 0.361511H3.54101C1.81513 0.361511 0.416016 1.76062 0.416016 3.48651V22.2365C0.416016 23.9624 1.81513 25.3615 3.54101 25.3615H22.291C24.0169 25.3615 25.416 23.9624 25.416 22.2365V3.48651C25.416 1.76062 24.0169 0.361511 22.291 0.361511Z" fill="#8C99A5"></path>
    <path fill-rule="evenodd" clip-rule="evenodd" d="M18.8277 16.0392C18.3586 15.6616 17.8573 15.3226 17.3639 14.9763C16.3797 14.2851 15.4796 14.2314 14.7452 15.3434C14.3328 15.9678 13.7555 15.9951 13.1519 15.7212C11.4878 14.9667 10.2028 13.8041 9.45012 12.1127C9.11717 11.3644 9.12153 10.6935 9.9006 10.1642C10.313 9.88433 10.7286 9.55312 10.6954 8.94152C10.652 8.14407 8.71573 5.47904 7.95113 5.19776C7.63471 5.08134 7.31964 5.08889 6.99776 5.19709C5.20481 5.80003 4.46222 7.27455 5.17342 9.02046C7.29512 14.2293 11.029 17.8555 16.169 20.0688C16.462 20.1948 16.7875 20.2452 16.9524 20.2904C18.1226 20.3022 19.4934 19.1747 19.8893 18.0558C20.2705 16.9794 19.4649 16.5521 18.8277 16.0392Z" fill="white"></path>
    <path fill-rule="evenodd" clip-rule="evenodd" d="M13.0639 5.73173C16.8215 6.30958 18.5545 8.09633 19.033 11.881C19.0774 12.2306 18.9472 12.7566 19.4459 12.7663C19.9672 12.7762 19.8416 12.258 19.8459 11.9081C19.89 8.34364 16.782 5.03924 13.1726 4.91741C12.9003 4.95657 12.3368 4.72959 12.3016 5.33996C12.2782 5.75151 12.7526 5.68386 13.0639 5.73173Z" fill="white"></path>
    <path fill-rule="evenodd" clip-rule="evenodd" d="M13.7999 6.76936C13.4385 6.72584 12.9614 6.55551 12.8769 7.05706C12.7887 7.5834 13.3205 7.52994 13.6622 7.60642C15.983 8.12511 16.7911 8.96983 17.1732 11.2719C17.229 11.6075 17.1181 12.1299 17.6885 12.0433C18.1112 11.979 17.9585 11.5312 17.9939 11.2696C18.0126 9.05949 16.1187 7.04778 13.7999 6.76936Z" fill="white"></path>
    <path fill-rule="evenodd" clip-rule="evenodd" d="M14.013 8.57678C13.7717 8.58275 13.5349 8.60884 13.4462 8.86665C13.3131 9.252 13.5932 9.3439 13.8784 9.3897C14.8304 9.54255 15.3315 10.1039 15.4266 11.0533C15.4523 11.311 15.6158 11.5197 15.8647 11.4903C16.2096 11.4492 16.2408 11.1422 16.2302 10.8507C16.2472 9.78405 15.0417 8.55125 14.013 8.57678Z" fill="white"></path>
</svg>