<svg width="26" height="26" viewBox="0 0 26 26" fill="none" xmlns="http://www.w3.org/2000/svg">
    <path d="M23.1452 0.361511H2.31185C1.16602 0.361511 0.228516 1.29901 0.228516 2.44484V23.2782C0.228516 24.424 1.16602 25.3615 2.31185 25.3615H23.1452C24.291 25.3615 25.2285 24.424 25.2285 23.2782V2.44484C25.2285 1.29901 24.291 0.361511 23.1452 0.361511Z" fill="#8C99A5" />
    <path d="M16.375 13.3823L16.8958 10.7782H14.2917V8.69484C14.2917 7.91359 14.7083 7.65318 15.8542 7.65318H16.8958V5.04901C16.8958 5.04901 15.8542 5.04901 14.8125 5.04901C12.6771 5.04901 11.1667 6.29901 11.1667 8.69484V10.7782H8.5625V13.3823H11.1667V20.674H14.2917V13.3823H16.375Z" fill="white" />
</svg>