<svg width="26" height="26" viewBox="0 0 26 26" fill="none" xmlns="http://www.w3.org/2000/svg">
    <path d="M23.2301 0.361511H3.5941C2.11288 0.361511 0.912109 1.56228 0.912109 3.0435V22.6795C0.912109 24.1607 2.11288 25.3615 3.5941 25.3615H23.2301C24.7113 25.3615 25.9121 24.1607 25.9121 22.6795V3.0435C25.9121 1.56228 24.7113 0.361511 23.2301 0.361511Z" fill="#8C99A5"></path>
    <path fill-rule="evenodd" clip-rule="evenodd" d="M18.9112 8.57067C19.0442 8.30469 19.3101 8.30469 19.3101 7.90573C18.7782 7.90573 18.3792 8.30469 18.1133 8.43768L9.20312 14.0231L10.932 19.4756C11.1979 19.2096 11.1979 18.9437 11.1979 18.4117C11.1979 18.1457 11.3309 17.6138 11.3309 17.3478V16.4169C11.4639 16.2839 11.4639 16.1509 11.4639 15.885C11.4639 15.752 11.4639 15.619 11.4639 15.486C11.5969 15.22 11.7299 15.353 11.8629 15.087C13.8577 12.9592 16.6504 10.5655 18.9112 8.57067Z" fill="#CCD8E6"></path>
    <path fill-rule="evenodd" clip-rule="evenodd" d="M4.81421 12.4274L9.20279 14.0232L18.5119 8.17181C18.7779 8.03882 19.0438 7.90583 19.3098 7.90583C19.3098 8.30479 18.7779 8.70375 18.5119 8.96973C16.5171 10.6986 13.1924 13.2253 11.4636 15.2201L13.0594 16.417C13.3254 16.417 13.9903 17.0819 14.1233 17.2149C14.3893 17.3479 15.4532 18.1458 15.5862 18.4118C15.8521 18.4118 15.8521 18.5448 15.9851 18.6778L17.315 19.6087C17.847 20.0077 18.3789 20.6726 19.3098 20.0077L22.2355 6.70895C22.6345 4.44817 21.5706 4.84713 20.1077 5.37908L5.21317 11.3635C4.68122 11.6295 4.14927 12.2944 4.81421 12.4274Z" fill="#FEFEFE"></path>
    <path fill-rule="evenodd" clip-rule="evenodd" d="M10.9316 19.4757L11.0646 19.6087C11.3306 19.6087 11.5966 19.4757 11.8626 19.2098L14.1233 17.215C13.9903 17.082 13.3254 16.417 13.0594 16.417L11.4636 15.2202L10.9316 19.4757Z" fill="#ABBDD5"></path>
</svg>