<svg width="26" height="26" viewBox="0 0 26 26" fill="none" xmlns="http://www.w3.org/2000/svg">
    <rect x="0.320312" y="0.514374" width="25" height="25" rx="2" fill="#8C99A5"></rect>
    <path d="M7.32031 6.01437C6.49188 6.01437 5.82031 6.68594 5.82031 7.51437V13.5144C5.82031 14.3428 6.49188 15.0144 7.32031 15.0144H8.82031V16.0144H7.32031C5.9396 16.0144 4.82031 14.8951 4.82031 13.5144V7.51437C4.82031 6.13366 5.9396 5.01437 7.32031 5.01437H13.3203C14.701 5.01437 15.8203 6.13366 15.8203 7.51437V13.5144C15.8203 14.8951 14.701 16.0144 13.3203 16.0144H11.8203V15.0144H13.3203C14.1487 15.0144 14.8203 14.3428 14.8203 13.5144V7.51437C14.8203 6.68594 14.1487 6.01437 13.3203 6.01437H7.32031ZM12.3203 10.0144H13.8203V11.0144H12.3203C11.4919 11.0144 10.8203 11.6859 10.8203 12.5144V18.5144C10.8203 19.3428 11.4919 20.0144 12.3203 20.0144H18.3203C19.1487 20.0144 19.8203 19.3428 19.8203 18.5144V12.5144C19.8203 11.6859 19.1487 11.0144 18.3203 11.0144H16.8203V10.0144H18.3203C19.701 10.0144 20.8203 11.1337 20.8203 12.5144V18.5144C20.8203 19.8951 19.701 21.0144 18.3203 21.0144H12.3203C10.9396 21.0144 9.82031 19.8951 9.82031 18.5144V12.5144C9.82031 11.1337 10.9396 10.0144 12.3203 10.0144Z" fill="white"></path>
</svg>