<svg width="26" height="26" viewBox="0 0 26 26" fill="none" xmlns="http://www.w3.org/2000/svg">
    <path d="M25.2578 23.799C25.2578 24.6615 24.5578 25.3615 23.6953 25.3615H1.82031C0.957813 25.3615 0.257812 24.6615 0.257812 23.799V1.92401C0.257812 1.06151 0.957813 0.361511 1.82031 0.361511H23.6953C24.5578 0.361511 25.2578 1.06151 25.2578 1.92401V23.799Z" fill="#8C99A5"></path>
    <path d="M20.5602 8.0912C19.9852 8.34276 19.3687 8.51073 18.7187 8.58729C19.3828 8.19823 19.8906 7.58026 20.1297 6.84432C19.5109 7.20448 18.825 7.46698 18.0945 7.60839C17.5102 6.9951 16.6773 6.61151 15.7562 6.61151C13.9859 6.61151 12.5531 8.02323 12.5531 9.7662C12.5531 10.0115 12.5813 10.2545 12.6344 10.4865C9.97266 10.3521 7.61172 9.09667 6.03125 7.18886C5.75625 7.65526 5.59688 8.19667 5.59688 8.77635C5.59688 9.86932 6.16406 10.8349 7.02187 11.4014C6.49766 11.3842 6.00313 11.2428 5.57188 11.006C5.57109 11.0193 5.57109 11.0326 5.57109 11.0467C5.57109 12.574 6.67578 13.8506 8.14141 14.1404C7.87344 14.2107 7.59063 14.2514 7.29688 14.2514C7.09063 14.2514 6.89062 14.2326 6.69531 14.1951C7.10156 15.4482 8.28437 16.3599 9.68594 16.3865C8.59375 17.2318 7.21094 17.7365 5.71016 17.7365C5.45234 17.7365 5.19609 17.7224 4.94531 17.6928C6.3625 18.5873 8.04766 19.1092 9.85703 19.1092C15.7484 19.1092 18.9711 14.3014 18.9711 10.1318C18.9711 9.99667 18.9672 9.85839 18.9617 9.72479C19.5867 9.2787 20.1312 8.72323 20.5602 8.0912Z" fill="white"></path>
</svg>