<svg width="26" height="26" viewBox="0 0 26 26" fill="none" xmlns="http://www.w3.org/2000/svg">
    <rect x="0.912109" y="0.361511" width="25" height="25" rx="2" fill="#8C99A5"></rect>
    <path d="M6.78984 9.47081V19.4406H5.58975C5.14014 19.4406 4.77539 19.0759 4.77539 18.6263V8.00241L6.0911 8.03827L6.78984 9.47081Z" fill="white"></path>
    <path d="M22.0477 8.00236V18.6262C22.0477 19.0758 21.6829 19.4406 21.2329 19.4406H20.0332V9.47075L20.6975 7.90118L22.0477 8.00236Z" fill="white"></path>
    <path d="M22.0483 7.09676V8.00241L20.0338 9.4708L13.4118 14.2974L6.78984 9.4708L4.77539 8.00241V7.09676C4.77539 6.64716 5.14014 6.28241 5.58975 6.28241H6.06121L13.4118 11.64L20.7624 6.28241H21.2335C21.6835 6.28241 22.0483 6.64713 22.0483 7.09676Z" fill="white"></path>
</svg>