<svg width="26" height="26" viewBox="0 0 26 26" fill="none" xmlns="http://www.w3.org/2000/svg">
    <path d="M21.8961 0.361511H3.61949C1.76289 0.361511 0.257812 1.86658 0.257812 3.72319V21.9998C0.257812 23.8564 1.76289 25.3615 3.61949 25.3615H21.8961C23.7527 25.3615 25.2578 23.8564 25.2578 21.9998V3.72319C25.2578 1.86658 23.7527 0.361511 21.8961 0.361511Z" fill="#8C99A5"></path>
    <path d="M4.97266 20.7316L6.50254 16.7392C5.49239 15.1667 5.09487 13.278 5.38545 11.4317C5.67603 9.58542 6.63449 7.91013 8.07882 6.72392C9.52315 5.53771 11.3528 4.92319 13.2203 4.99703C15.0879 5.07088 16.8633 5.82795 18.2095 7.12449C19.5556 8.42104 20.3788 10.1668 20.5227 12.0302C20.6666 13.8937 20.1212 15.7451 18.9901 17.233C17.8589 18.7208 16.2208 19.7415 14.3867 20.1012C12.5526 20.4608 10.6503 20.1345 9.041 19.1841L4.97266 20.7316ZM9.35815 18.0358L9.49607 18.1221C10.8402 18.9518 12.4437 19.255 13.998 18.9733C15.5523 18.6917 16.9475 17.845 17.9149 16.5963C18.8824 15.3477 19.3538 13.7853 19.2384 12.2099C19.1229 10.6345 18.4288 9.15749 17.2897 8.0632C16.1505 6.9689 14.6468 6.33466 13.0681 6.28256C11.4893 6.23046 9.94712 6.76419 8.7383 7.78101C7.52949 8.79783 6.73952 10.2259 6.52048 11.7902C6.30143 13.3545 6.66878 14.9446 7.55182 16.2544L7.64721 16.3965L6.62405 19.0772L9.35815 18.0358Z" fill="#FEFEFE"></path>
    <path d="M17.2205 14.0807C16.3747 13.6428 15.4757 13.2371 15.4691 13.2334C15.1597 13.0875 14.9422 13.2502 14.8751 13.3473L14.1716 14.223C13.9819 14.3893 13.7177 14.223 13.6885 14.2055C12.5093 13.7183 11.524 12.8553 10.8856 11.7506C10.7397 11.5638 10.8674 11.4419 10.8951 11.4186C11.187 11.1661 11.4563 10.7363 11.4665 10.7195C11.6409 10.4466 11.4847 10.1073 11.4796 10.0963L10.7244 8.34859C10.5456 8.00781 10.1406 8.06619 10.1347 8.06838H9.83481C9.73717 8.05296 9.63731 8.05978 9.54267 8.08834C9.44803 8.1169 9.36106 8.16645 9.28824 8.2333C8.93927 8.50609 8.6676 8.8653 8.50013 9.27536C8.34846 9.74205 8.30637 10.2374 8.37712 10.723C8.44786 11.2086 8.62954 11.6713 8.90805 12.0754C10.2055 14.1763 11.4541 15.0169 11.5037 15.049C13.2551 16.329 15.0123 16.5085 15.0794 16.5143C15.1774 16.5276 15.2761 16.5342 15.375 16.534C15.6816 16.5292 15.9843 16.464 16.2658 16.3422C16.5473 16.2204 16.802 16.0443 17.0154 15.824C17.4226 15.473 17.4861 14.682 17.4883 14.6411C17.4905 14.2018 17.2241 14.0821 17.2205 14.0807Z" fill="#FEFEFE"></path>
</svg>