<svg width="31" height="31" viewBox="0 0 31 31" fill="none" xmlns="http://www.w3.org/2000/svg">
    <path d="M27.6996 0.28125H4.13636C2.35889 0.28125 0.917969 1.72217 0.917969 3.49964V27.0629C0.917969 28.8403 2.35889 30.2812 4.13636 30.2812H27.6996C29.477 30.2812 30.918 28.8403 30.918 27.0629V3.49964C30.918 1.72217 29.477 0.28125 27.6996 0.28125Z" fill="#20A0E1"></path>
    <path fill-rule="evenodd" clip-rule="evenodd" d="M22.5169 10.1326C22.6765 9.81347 22.9956 9.81347 22.9956 9.33472C22.3573 9.33472 21.8785 9.81347 21.5594 9.97306L10.8672 16.6756L12.9418 23.2186C13.261 22.8994 13.261 22.5802 13.261 21.9419C13.261 21.6227 13.4205 20.9844 13.4205 20.6652V19.5481C13.5801 19.3885 13.5801 19.229 13.5801 18.9098C13.5801 18.7502 13.5801 18.5906 13.5801 18.431C13.7397 18.1119 13.8993 18.2715 14.0589 17.9523C16.4527 15.3989 19.8039 12.5264 22.5169 10.1326Z" fill="#CCD8E6"></path>
    <path fill-rule="evenodd" clip-rule="evenodd" d="M5.60088 14.7606L10.8672 16.6756L22.0381 9.65387C22.3573 9.49428 22.6764 9.3347 22.9956 9.3347C22.9956 9.81345 22.3573 10.2922 22.0381 10.6114C19.6443 12.686 15.6547 15.7181 13.5801 18.1119L15.4951 19.5481C15.8143 19.5481 16.6122 20.346 16.7718 20.5056C17.091 20.6652 18.3677 21.6227 18.5272 21.9419C18.8464 21.9419 18.8464 22.1015 19.006 22.2611L20.6018 23.3781C21.2402 23.8569 21.8785 24.6548 22.9956 23.8569L26.5065 7.89844C26.9852 5.1855 25.7085 5.66425 23.9531 6.30259L6.07963 13.4839C5.4413 13.8031 4.80296 14.601 5.60088 14.7606Z" fill="#FEFEFE"></path>
    <path fill-rule="evenodd" clip-rule="evenodd" d="M12.9414 23.2185L13.101 23.3781C13.4202 23.3781 13.7393 23.2185 14.0585 22.8994L16.7714 20.5056C16.6119 20.346 15.8139 19.5481 15.4948 19.5481L13.5797 18.1118L12.9414 23.2185Z" fill="#ABBDD5"></path>
</svg>