<svg width="21" height="21" viewBox="0 0 21 21" fill="none" xmlns="http://www.w3.org/2000/svg">
    <path d="M4.59609 16.6186H3.95442C2.18278 16.6186 0.746094 15.1819 0.746094 13.4102C0.746094 11.6386 2.18278 10.2019 3.95442 10.2019H4.59609V16.6186Z" stroke="#434D56" stroke-miterlimit="10" stroke-linejoin="round"/>
    <path d="M16.7901 16.6183H16.1484V10.2017H16.7901C18.5617 10.2017 19.9984 11.6383 19.9984 13.41C19.9984 15.1816 18.5617 16.6183 16.7901 16.6183Z" stroke="#434D56" stroke-miterlimit="10" stroke-linejoin="round"/>
    <path d="M3.31445 10.2018V8.27683C3.31445 4.37871 6.47466 1.21851 10.3728 1.21851C14.2709 1.21851 17.4311 4.37871 17.4311 8.27683V10.2018" stroke="#434D56" stroke-miterlimit="10" stroke-linejoin="round"/>
    <path d="M17.429 16.6187V19.1853C17.429 19.8944 16.8547 20.4686 16.1457 20.4686H14.2207" stroke="#434D56" stroke-miterlimit="10" stroke-linejoin="round"/>
    <path d="M11.6523 20.4683H12.9357" stroke="#434D56" stroke-miterlimit="10" stroke-linejoin="round"/>
</svg>