<svg width="20" height="22" viewBox="0 0 20 22" fill="none" xmlns="http://www.w3.org/2000/svg">
    <path d="M9.92676 11.8539C6.95925 11.8539 4.54492 9.39133 4.54492 6.36447C4.54492 3.33762 6.95925 0.875 9.92676 0.875C12.8943 0.875 15.3086 3.33762 15.3086 6.36447C15.3086 9.39133 12.8943 11.8539 9.92676 11.8539ZM9.92676 1.98766C7.55896 1.98766 5.63576 3.94932 5.63576 6.36447C5.63576 8.77963 7.55896 10.7413 9.92676 10.7413C12.2946 10.7413 14.2178 8.77963 14.2178 6.36447C14.2178 3.94932 12.2946 1.98766 9.92676 1.98766Z" fill="#434D56"/>
    <path d="M18.9971 21.1032C18.6973 21.1032 18.4543 20.8553 18.4543 20.5495C18.4543 15.7561 14.6337 11.8591 9.93432 11.8591C5.23491 11.8591 1.4092 15.7508 1.4092 20.5442C1.4092 20.8501 1.16622 21.0979 0.866366 21.0979C0.566513 21.0979 0.318359 20.8501 0.318359 20.5442C0.318359 15.1391 4.63003 10.7412 9.92915 10.7412C15.2283 10.7412 19.5399 15.1391 19.5399 20.5442C19.5399 20.8501 19.297 21.1032 18.9971 21.1032Z" fill="#434D56"/>
</svg>
