<svg width="19" height="19" viewBox="0 0 19 19" fill="none" xmlns="http://www.w3.org/2000/svg">
    <path d="M9.58472 5.44556L9.58767 17.5884" stroke="#434D56" stroke-miterlimit="10" stroke-linecap="round" stroke-linejoin="round"></path>
    <path d="M9.5874 17.5884C12.0143 17.574 17.2779 15.9693 18.0874 8.68359C15.6588 8.68359 9.5874 10.7074 9.5874 16.7788" stroke="#434D56" stroke-miterlimit="10" stroke-linecap="round" stroke-linejoin="round"></path>
    <path d="M9.5874 17.5884C7.16054 17.574 1.89693 15.9693 1.0874 8.68359C3.51597 8.68359 9.5874 10.7074 9.5874 16.7788" stroke="#434D56" stroke-miterlimit="10" stroke-linecap="round" stroke-linejoin="round"></path>
    <path d="M9.58739 5.44557C9.58702 1.80271 5.13501 2.20747 5.13501 2.20747C5.51313 2.77505 5.71463 4.40379 5.82201 5.97769C5.95707 7.95711 7.60041 9.49319 9.58443 9.49319H9.59035C11.5744 9.49319 13.2177 7.95711 13.3528 5.97769C13.4602 4.40379 13.6617 2.77505 14.0398 2.20747C14.0398 2.20747 9.58702 1.80271 9.58739 5.44557Z" stroke="#434D56" stroke-miterlimit="10" stroke-linecap="round" stroke-linejoin="round"></path>
    <path d="M7.3916 2.47059L9.58752 0.588379L11.8495 2.44912" stroke="#434D56" stroke-miterlimit="10" stroke-linecap="round" stroke-linejoin="round"></path>
</svg>