<svg width="31" height="31" viewBox="0 0 31 31" fill="none" xmlns="http://www.w3.org/2000/svg">
    <path d="M27.168 0.28125H4.66797C2.5969 0.28125 0.917969 1.96018 0.917969 4.03125V26.5312C0.917969 28.6023 2.5969 30.2812 4.66797 30.2812H27.168C29.239 30.2812 30.918 28.6023 30.918 26.5312V4.03125C30.918 1.96018 29.239 0.28125 27.168 0.28125Z" fill="#6F3FAA"></path>
    <path fill-rule="evenodd" clip-rule="evenodd" d="M23.0114 19.0944C22.4485 18.6413 21.8469 18.2345 21.2548 17.8189C20.0738 16.9895 18.9937 16.9251 18.1124 18.2595C17.6176 19.0087 16.9248 19.0415 16.2005 18.7128C14.2035 17.8074 12.6616 16.4122 11.7583 14.3826C11.3588 13.4846 11.364 12.6795 12.2989 12.0444C12.7938 11.7085 13.2925 11.3111 13.2526 10.5772C13.2005 9.62023 10.877 6.42219 9.95952 6.08466C9.57982 5.94496 9.20174 5.95401 8.81547 6.08386C6.66394 6.80738 5.77282 8.57681 6.62627 10.6719C9.17231 16.9225 13.653 21.274 19.8209 23.9299C20.1725 24.0811 20.5632 24.1416 20.761 24.1958C22.1652 24.21 23.8102 22.857 24.2853 21.5144C24.7427 20.2226 23.7761 19.7099 23.0114 19.0944Z" fill="white"></path>
    <path fill-rule="evenodd" clip-rule="evenodd" d="M16.0964 6.72547C20.6056 7.4189 22.6851 9.56299 23.2594 14.1046C23.3126 14.5241 23.1563 15.1553 23.7548 15.167C24.3803 15.1789 24.2296 14.557 24.2349 14.1371C24.2878 9.85976 20.5582 5.89449 16.2268 5.74828C15.9 5.79527 15.2238 5.5229 15.1817 6.25534C15.1536 6.7492 15.7228 6.66802 16.0964 6.72547Z" fill="white"></path>
    <path fill-rule="evenodd" clip-rule="evenodd" d="M16.9787 7.97069C16.545 7.91847 15.9724 7.71408 15.871 8.31593C15.7652 8.94755 16.4034 8.88339 16.8134 8.97517C19.5984 9.5976 20.5681 10.6113 21.0266 13.3738C21.0936 13.7765 20.9605 14.4034 21.6449 14.2995C22.1522 14.2222 21.969 13.6849 22.0114 13.371C22.0339 10.7189 19.7612 8.3048 16.9787 7.97069Z" fill="white"></path>
    <path fill-rule="evenodd" clip-rule="evenodd" d="M17.2347 10.1396C16.9452 10.1468 16.661 10.1781 16.5546 10.4875C16.3948 10.9499 16.731 11.0602 17.0732 11.1151C18.2157 11.2986 18.8169 11.9722 18.931 13.1114C18.9618 13.4207 19.1581 13.6712 19.4568 13.6359C19.8707 13.5866 19.9081 13.2181 19.8954 12.8683C19.9158 11.5884 18.4692 10.109 17.2347 10.1396Z" fill="white"></path>
</svg>