<svg width="41" height="25" viewBox="0 0 41 25" fill="none" xmlns="http://www.w3.org/2000/svg">
<path d="M40.214 16.0351V18.8272C40.214 19.431 39.7245 19.9205 39.1207 19.9205H36.0595C35.8072 19.9205 35.6047 19.8432 35.4035 19.685L29.7651 15.4167C29.5998 15.2916 29.3626 15.4095 29.3626 15.6168V20.6963C29.3626 22.2437 28.1011 23.4884 26.5705 23.4884H4.03187C2.50126 23.4884 1.25659 22.2437 1.25659 20.6963V4.39781C1.25659 2.85039 2.50126 1.60571 4.03187 1.60571H26.5705C28.1011 1.60571 29.3626 2.85039 29.3626 4.39781V9.67773C29.3626 9.81615 29.5212 9.89461 29.6312 9.81063L35.4035 5.40495C35.5892 5.25548 35.8072 5.16948 36.0595 5.16948H39.1207C39.7245 5.16948 40.214 5.65896 40.214 6.26278V9.0717V16.0351Z" stroke="white" stroke-width="1.5" stroke-miterlimit="10" stroke-linecap="round" stroke-linejoin="round"/>
<path d="M15.3097 17.3788C17.9793 17.3788 20.1434 15.2146 20.1434 12.5451C20.1434 9.87553 17.9793 7.71143 15.3097 7.71143C12.6402 7.71143 10.4761 9.87553 10.4761 12.5451C10.4761 15.2146 12.6402 17.3788 15.3097 17.3788Z" stroke="white" stroke-width="1.5" stroke-miterlimit="10" stroke-linecap="round" stroke-linejoin="round"/>
</svg>
