<svg xmlns="http://www.w3.org/2000/svg" width="35" height="23" viewBox="0 0 35 23" fill="none">
    <path d="M34.8606 2.85645H0V20.2868H34.8606V2.85645Z" fill="#F6F6F6"/>
    <path fill-rule="evenodd" clip-rule="evenodd" d="M32.2461 0.895508C30.503 0.895508 12.0489 0.895507 1.74303 0.895508C0.871515 0.895508 0 1.76702 0 2.63854V5.25309H34.8606C34.8606 5.25309 34.8606 9.29952 34.8606 3.51005C34.8606 1.76702 33.9891 0.895508 32.2461 0.895508Z" fill="#265697"/>
    <path fill-rule="evenodd" clip-rule="evenodd" d="M0 18.3258C0 18.3258 2.10552e-07 18.3258 0 20.0688C-1.00843e-07 21.8119 0.871515 22.6834 2.61455 22.6834C12.337 22.6834 30.503 22.6834 32.2461 22.6834C33.9891 22.6834 34.8606 21.8119 34.8606 20.0688V18.3258H0Z" fill="#D97B16"/>
    <path fill-rule="evenodd" clip-rule="evenodd" d="M24.3188 7.38444C23.8301 7.19714 23.0646 6.99615 22.1085 6.99615C19.6718 6.99615 17.9554 8.25007 17.9407 10.0471C17.927 11.3755 19.1661 12.1165 20.1015 12.5587C21.0614 13.0119 21.3841 13.3009 21.3795 13.7055C21.3735 14.3252 20.613 14.6083 19.9042 14.6083C18.9171 14.6083 18.3928 14.4682 17.5828 14.123L17.2651 13.9761L16.9189 16.0456C17.4949 16.3037 18.5601 16.5273 19.666 16.5389C22.2582 16.5389 23.9411 15.2993 23.9602 13.3804C23.9695 12.3287 23.3124 11.5283 21.8897 10.8686C21.0278 10.4409 20.4999 10.1555 20.5055 9.72245C20.5055 9.33818 20.9523 8.92728 21.9177 8.92728C22.7241 8.91448 23.3083 9.09417 23.7635 9.28147L23.9844 9.38815L24.3188 7.38444Z" fill="#265697"/>
    <path fill-rule="evenodd" clip-rule="evenodd" d="M30.6421 7.16559H28.7365C28.1462 7.16559 27.7044 7.33021 27.4452 7.93224L23.7827 16.4045H26.3723C26.3723 16.4045 26.7957 15.2654 26.8914 15.0153C27.1744 15.0153 29.6901 15.0192 30.0497 15.0192C30.1235 15.3429 30.3497 16.4045 30.3497 16.4045H32.638L30.6421 7.16559ZM27.6011 13.1243C27.8051 12.5917 28.5837 10.54 28.5837 10.54C28.5691 10.5646 28.7861 10.0048 28.9106 9.65765L29.0773 10.4547C29.0773 10.4547 29.5495 12.6615 29.6482 13.1242L27.6011 13.1243Z" fill="#265697"/>
    <path fill-rule="evenodd" clip-rule="evenodd" d="M12.9092 16.4016L14.451 7.15674H16.9171L15.3742 16.4016H12.9092Z" fill="#265697"/>
    <path fill-rule="evenodd" clip-rule="evenodd" d="M10.8409 7.16351L8.42652 13.4678L8.16928 12.1866C7.71982 10.7098 6.31945 9.10965 4.75391 8.30858L6.96154 16.3936L9.57071 16.3906L13.4531 7.16351H10.8409Z" fill="#265697"/>
    <path fill-rule="evenodd" clip-rule="evenodd" d="M6.18672 7.15784H2.21018L2.17871 7.35018C5.27241 8.11542 7.31949 9.9647 8.16923 12.1867L7.30456 7.93832C7.15528 7.35292 6.72232 7.17824 6.18672 7.15784Z" fill="#D97B16"/>
</svg>