<svg xmlns="http://www.w3.org/2000/svg" width="74" height="10" viewBox="0 0 74 10" fill="none">
    <path d="M3.50391 6.67773L5.33838 0.228516H6.22705L5.71289 2.73584L3.73877 9.4707H2.85645L3.50391 6.67773ZM1.60596 0.228516L3.06592 6.55078L3.50391 9.4707H2.62793L0.387207 0.228516H1.60596ZM8.60107 6.54443L10.0293 0.228516H11.2544L9.02002 9.4707H8.14404L8.60107 6.54443ZM6.36035 0.228516L8.14404 6.67773L8.7915 9.4707H7.90918L6.00488 2.73584L5.48438 0.228516H6.36035ZM15.7549 1.04736L12.6953 9.4707H11.4448L14.9678 0.228516H15.7739L15.7549 1.04736ZM18.3193 9.4707L15.2534 1.04736L15.2344 0.228516H16.0405L19.5762 9.4707H18.3193ZM18.1606 6.04932V7.05225H12.9683V6.04932H18.1606ZM20.6426 0.228516L23.042 4.86865L25.4478 0.228516H26.8379L23.6514 6.01758V9.4707H22.4263V6.01758L19.2397 0.228516H20.6426ZM55.5801 5.84619H53.1108V4.84961H55.5801C56.0583 4.84961 56.4455 4.77344 56.7417 4.62109C57.0379 4.46875 57.2537 4.25716 57.3892 3.98633C57.5288 3.71549 57.5986 3.40658 57.5986 3.05957C57.5986 2.74219 57.5288 2.44385 57.3892 2.16455C57.2537 1.88525 57.0379 1.66097 56.7417 1.4917C56.4455 1.3182 56.0583 1.23145 55.5801 1.23145H53.3965V9.4707H52.1714V0.228516H55.5801C56.2783 0.228516 56.8687 0.349121 57.3511 0.590332C57.8335 0.831543 58.1995 1.16585 58.4492 1.59326C58.6989 2.01644 58.8237 2.50098 58.8237 3.04688C58.8237 3.63932 58.6989 4.14502 58.4492 4.56396C58.1995 4.98291 57.8335 5.30241 57.3511 5.52246C56.8687 5.73828 56.2783 5.84619 55.5801 5.84619ZM62.918 1.04736L59.8584 9.4707H58.6079L62.1309 0.228516H62.937L62.918 1.04736ZM65.4824 9.4707L62.4165 1.04736L62.3975 0.228516H63.2036L66.7393 9.4707H65.4824ZM65.3237 6.04932V7.05225H60.1313V6.04932H65.3237ZM67.8057 0.228516L70.2051 4.86865L72.6108 0.228516H74.001L70.8145 6.01758V9.4707H69.5894V6.01758L66.4028 0.228516H67.8057Z" fill="#434D56"/>
    <path d="M29.25 0.228516V9.4707H28.0249V0.228516H29.25ZM33.1221 4.38623V5.38916H28.9834V4.38623H33.1221ZM33.7505 0.228516V1.23145H28.9834V0.228516H33.7505ZM42.3262 4.55762V5.1416C42.3262 5.83561 42.2394 6.45768 42.0659 7.00781C41.8924 7.55794 41.6427 8.02555 41.3169 8.41064C40.991 8.79574 40.5996 9.08984 40.1426 9.29297C39.6898 9.49609 39.182 9.59766 38.6191 9.59766C38.0732 9.59766 37.5718 9.49609 37.1147 9.29297C36.6619 9.08984 36.2684 8.79574 35.9341 8.41064C35.604 8.02555 35.348 7.55794 35.166 7.00781C34.984 6.45768 34.8931 5.83561 34.8931 5.1416V4.55762C34.8931 3.86361 34.9819 3.24365 35.1597 2.69775C35.3416 2.14762 35.5977 1.68001 35.9277 1.29492C36.2578 0.905599 36.6493 0.609375 37.1021 0.40625C37.5591 0.203125 38.0605 0.101562 38.6064 0.101562C39.1693 0.101562 39.6771 0.203125 40.1299 0.40625C40.5869 0.609375 40.9784 0.905599 41.3042 1.29492C41.6343 1.68001 41.8861 2.14762 42.0596 2.69775C42.2373 3.24365 42.3262 3.86361 42.3262 4.55762ZM41.1138 5.1416V4.54492C41.1138 3.99479 41.0566 3.50814 40.9424 3.08496C40.8324 2.66178 40.6694 2.30632 40.4536 2.01855C40.2378 1.73079 39.9733 1.51286 39.6602 1.36475C39.3512 1.21663 39 1.14258 38.6064 1.14258C38.2256 1.14258 37.8807 1.21663 37.5718 1.36475C37.2671 1.51286 37.0047 1.73079 36.7847 2.01855C36.5688 2.30632 36.4017 2.66178 36.2832 3.08496C36.1647 3.50814 36.1055 3.99479 36.1055 4.54492V5.1416C36.1055 5.69596 36.1647 6.18685 36.2832 6.61426C36.4017 7.03743 36.571 7.39502 36.791 7.68701C37.0153 7.97477 37.2798 8.19271 37.5845 8.34082C37.8934 8.48893 38.2383 8.56299 38.6191 8.56299C39.0169 8.56299 39.3703 8.48893 39.6792 8.34082C39.9881 8.19271 40.2484 7.97477 40.46 7.68701C40.6758 7.39502 40.8387 7.03743 40.9487 6.61426C41.0588 6.18685 41.1138 5.69596 41.1138 5.1416ZM44.1606 0.228516H47.2202C47.9142 0.228516 48.5003 0.33431 48.9785 0.545898C49.4609 0.757487 49.827 1.07064 50.0767 1.48535C50.3306 1.89583 50.4575 2.40153 50.4575 3.00244C50.4575 3.42562 50.3708 3.81283 50.1973 4.16406C50.028 4.51107 49.7826 4.80729 49.4609 5.05273C49.1436 5.29395 48.7627 5.4738 48.3184 5.59229L47.9756 5.72559H45.1001L45.0874 4.729H47.2583C47.6984 4.729 48.0645 4.65283 48.3564 4.50049C48.6484 4.34391 48.8685 4.13444 49.0166 3.87207C49.1647 3.6097 49.2388 3.31982 49.2388 3.00244C49.2388 2.64697 49.1689 2.33594 49.0293 2.06934C48.8896 1.80273 48.6696 1.59749 48.3691 1.45361C48.0729 1.3055 47.6899 1.23145 47.2202 1.23145H45.3857V9.4707H44.1606V0.228516ZM49.5625 9.4707L47.3154 5.28125L48.5913 5.2749L50.8701 9.39453V9.4707H49.5625Z" fill="url(#paint0_linear_1_2653)"/>
    <defs>
        <linearGradient id="paint0_linear_1_2653" x1="38.4679" y1="-2.5293" x2="38.4679" y2="15.9849" gradientUnits="userSpaceOnUse">
            <stop stop-color="#4BA3FB"/>
            <stop offset="1" stop-color="#69F8F9"/>
        </linearGradient>
    </defs>
</svg>