<svg width="31" height="31" viewBox="0 0 31 31" fill="none" xmlns="http://www.w3.org/2000/svg">
    <path d="M26.884 0.28125H4.95198C2.72406 0.28125 0.917969 2.08734 0.917969 4.31526V26.2472C0.917969 28.4752 2.72406 30.2812 4.95198 30.2812H26.884C29.1119 30.2812 30.918 28.4752 30.918 26.2472V4.31526C30.918 2.08734 29.1119 0.28125 26.884 0.28125Z" fill="#29A71A"></path>
    <path d="M6.57422 24.7255L8.41008 19.9347C7.1979 18.0477 6.72088 15.7812 7.06957 13.5657C7.41827 11.3501 8.56841 9.33978 10.3016 7.91633C12.0348 6.49288 14.2304 5.75545 16.4715 5.84407C18.7125 5.93268 20.843 6.84116 22.4584 8.39702C24.0738 9.95287 25.0616 12.0478 25.2343 14.2839C25.407 16.5201 24.7525 18.7418 23.3951 20.5272C22.0377 22.3126 20.072 23.5374 17.8711 23.969C15.6702 24.4006 13.3874 24.009 11.4562 22.8685L6.57422 24.7255ZM11.8368 21.4906L12.0023 21.5941C13.6153 22.5898 15.5395 22.9536 17.4047 22.6156C19.2698 22.2776 20.944 21.2616 22.105 19.7632C23.2659 18.2648 23.8316 16.3899 23.6931 14.4995C23.5545 12.609 22.7216 10.8366 21.3546 9.52346C19.9876 8.2103 18.1832 7.44921 16.2887 7.3867C14.3942 7.32418 12.5436 7.96466 11.093 9.18484C9.64242 10.405 8.69446 12.1187 8.4316 13.9959C8.16875 15.8731 8.60957 17.7812 9.66922 19.3529L9.78369 19.5235L8.5559 22.7402L11.8368 21.4906Z" fill="#FEFEFE"></path>
    <path d="M21.2741 16.7444C20.2592 16.219 19.1804 15.7321 19.1725 15.7277C18.8012 15.5526 18.5403 15.7479 18.4597 15.8644L17.6155 16.9152C17.3879 17.1148 17.0709 16.9152 17.0358 16.8942C15.6208 16.3095 14.4384 15.274 13.6723 13.9484C13.4972 13.7242 13.6504 13.5779 13.6837 13.5499C14.034 13.2469 14.3571 12.7312 14.3694 12.711C14.5787 12.3835 14.3913 11.9763 14.3851 11.9632L13.4788 9.86592C13.2643 9.45698 12.7783 9.52704 12.7713 9.52966H12.4113C12.2942 9.51116 12.1743 9.51935 12.0608 9.55362C11.9472 9.58789 11.8428 9.64735 11.7555 9.72757C11.3367 10.0549 11.0107 10.486 10.8097 10.978C10.6277 11.5381 10.5772 12.1325 10.6621 12.7152C10.747 13.2979 10.965 13.8532 11.2992 14.338C12.8562 16.8591 14.3545 17.8679 14.414 17.9064C16.5157 19.4424 18.6243 19.6578 18.7049 19.6648C18.8224 19.6807 18.9409 19.6886 19.0595 19.6885C19.4275 19.6827 19.7908 19.6044 20.1286 19.4583C20.4663 19.3121 20.772 19.1008 21.0281 18.8364C21.5167 18.4152 21.5929 17.466 21.5955 17.4169C21.5981 16.8898 21.2785 16.7462 21.2741 16.7444Z" fill="#FEFEFE"></path>
</svg>